<svg xmlns="http://www.w3.org/2000/svg" width="1024" height="2048"><g xmlns:inkscape="http://www.inkscape.org/namespaces/inkscape" inkscape:groupmode="lineset" inkscape:label="ViewLayer_LineSet"><rect width="100%" height="100%" fill="#999"/><g xmlns:inkscape="http://www.inkscape.org/namespaces/inkscape" inkscape:groupmode="layer" inkscape:label="strokes" fill="none" stroke="#000" stroke-linecap="round" stroke-linejoin="round"><path d="m822.5 410-5.2-1.5-5-1.2-4.9-.7H805l-5 .1-2.6.4-5.3 1.3M822.5 410l-5.5 7.4M842.5 464l-3.8-19.6-2.4-9.3-1.4-4.4-1.8-4.4-2-4.2-2.4-4.2-2.9-4-3.3-3.9M870.5 608l-5-17.8-2.6-8.8-5.6-17.4-9-26-12.4-34.5M779.5 551.7l4 11 4.4 10.8M788.7 575.5l3.6 7.7 3.8 7.5 4.1 7.2 4.4 7.2 9.2 13.9 19 27.4 9.3 14 5.6 9.4 5.4 9.5 5.2 9.9 5 10 4.8 10.2 4.5 10.3 4.1 10.5 3.8 10.6 3.5 10.6 3.1 10.7 2.7 10.6 2.2 10.7M879.4 646l-2.8-12M896.2 785.3l.7-8.5.4-8.4v-8.5l-.2-8.5-.4-8.5-.7-8.5-2-17-2.7-16.8-3.1-16.6M743.9 371.7l-2 3.4M745 372l-1.1-.3M743.9 371.7l-.5 3.1M745 372l-3.4 10.3-6.9 19.8-3.3 10-2.8 10.1-1.2 5.2-1 5.4"/><path d="m724 511.3 3.5 4.8 3.8 4.4 4.2 4 4.5 3.6 4.7 3.4 5 3 25.5 14.5 10.2 6.7 5.3 3.7 10.4 7.7 10.2 8 10 8.3 23 19.5 6.3 5.7 9.3 8.8 9.1 9 12 12.1 8.5 9.3 5 6 1.3 1.4-.2-.6-5.8-11.2-6.2-11-6.4-10.7-13.4-21.2-27.2-42L830 548l-6.4-10.8-6-11-5-9.4-4.5-9.6-11.2-24.2-7-14.4M661.3 383l-2.3 1-4 2.1-11.2 7.1-20.3 13.6-20 14v1.9l.7 2 1 2.1 3.2 5.5M626 468.1l4.4 10.1 2.3 4.7 1.3 2 1.3 1.7 1.4 1.3 1.4.6h1.4M638 483.7l3.8-3.2 4.5-2.4 5-1.6 5.7-.8 5.9-.3 6 .3 6.3.7 6 1L693 480l9.8 2.6 8.6 2.6 8.6 2.7 9 3.1-2-2-7.2-6.2-16-12.7-12.7-10.6-6-5.5-5.4-5.3-4.4-5-3.2-4.7-1.6-4 .3-3.4M522.8 485.4l13.4 9.8 12.4 8.1 11.6 6.3 11 4.5 10.6 2.7 10.4.9 10.4-1 10.6-2.6 11-4.5 11.6-6.4 12.3-8M528.7 444.9l-3.8-.8-2-.6-4-1.5-2-1-3.7-2-1.7-1.2-3.1-2.6-1.3-1.4M506 438l.3-2.4-.6-1.4-1.2-.5-1.8.4-2.1 1.1-2.3 1.8-2.2 2.4-2 2.9-1.6 3.3-1 3.5-.2 3.8M701 513.4l10-2.6 3.2-1.2M701.1 514.3l-.2-5M490.7 570.7l20.8 5.7 20 3.7 19.3 1.9h18.7l18-2 17.6-3.9 17-5.7 16.6-7.5 16.1-9.5 15.8-11.2 15.4-13M474 533l-11-1.7-10.8-2-16-3.9-16-4.7-10.4-3.5-8.6-4-5-2-2.6-.6h-.8l-.5.4-.2.5.2.5 1 1.2 5.7 4.2 4.8 4.9 4.3 4 4.5 4 4.6 3.7 4.8 3.5 4.9 3.4 10 6.4 10.4 5.9 10.6 5.4M748 539.4l-1.3-3.9M704.2 631.2l4.5-5 6.5-8 6.3-8 8.2-10.8M646.2 592l-22.3 16.6-17.2 12.3-11.8 7.5-6 3.6-6 3.3-6.1 3M567.2 681.1l12.2-.2 12.5-.4 12.5-1 6.2-.8 6.2-1 6-1.2 6-1.5 6-1.8 5.7-2M536 651.5l-11.5 1.8-11.5 1.4-11.5 1-17.4.8-17.4.1-9.9-.2-13.8-1-9.3-1.3-2.2-.2h-.5v.3l.8.4 8.4 3.6 8.6 3.4 8.7 3 8.8 2.7 9 2.5 9 2.2 9.1 2 9.1 1.7 9.2 1.5 9.1 1.3 18.2 2M734.9 651.7l-10.3 19.8-8.3 14.7-6 9.5-3.2 4.6-6.6 9M669 739.5l-7 5-7.1 4.6-7.3 4.4-7.4 4.1-7.5 3.9-7.6 3.6-7.7 3.4-7.8 3.2-8 3-7.9 3-16.2 5.2M577.5 783l15.4-.8 7.6-.5 15.2-1.6 7.6-1 15-2.5 7.5-1.6 7.4-1.8 7.5-2 7.4-2.1M862 475.8l-6.4-7.1-5-5-5.5-4.3-4-2.7M862 475.8l-7.1 3.8M871.4 503.5l-.9-4.8-2-7-2.6-6.8-3.8-9M865.6 589.3l1.6-12.3 4.3-25.3 1.7-12.8.5-6.3.2-6.3-.3-6.2-.6-6M792 582.3l-1 11.6-.6 11.5v11.4l.4 11.5.7 11.5 1 11.4 4.4 45.9.8 11.5.6 11.4M838 741.5l7.6-17 5.3-13 3-8.9 1.5-4.4 2.3-9"/><path d="m740.4 528.3 1.6 5.3 1 3.9M742.3 537.9l-5 17.7-3.6 16.8-2.4 16-1 15.4.2 14.8L732 633l3 14.2 4.6 14 6.1 14.1 7.6 14.2 9.3 14.4M868.5 775.7l-8-8.2-7.8-8.4-7.4-8.6-7.2-9M659.7 550.9l-6.3 14.4-4.5 11-4 11-2.5 7.5M700.5 709.2l-.5-6.8-.2-7v-7l.5-14 1-14 3.4-34.7M640.5 671.1l.2.8M643.3 682l3 10 1.8 5 4 9.8 2.1 4.8 4.7 9.4 5 9.4 5.1 9.1M596.1 599.2l5.5-9.4 8-13M540.2 579.8l-1.1 6-2 11.9-.6 5.9-1 11.8-.2 6v18l.7 12M576.8 638.3l3.3-8M539 680.5l2.8 13.8 3.5 13.6 4 13.4 4.7 13.2 5.3 13 11.8 25 3.7 7.3 2 2.8.7.3.6-.1.4-.4.1-.6v-.7l-.8-1.8-2-4.2-.7-1.9-2.7-11.5-2.1-11.7-2.2-17.2-1-11.4-.4-5.7-.4-11.5.2-11.5.7-11.6M789.5 406.8l-1 .3M714.8 384.3l-4-2-6-2-6.2-1.5-8.5-1.6"/><path d="m690.1 377.2-9.8 1.2-7.2 1.1-7.1 1.8-4.7 1.6M648.8 387.8l-3.8 1.7-3.9 2-3.8 2.3-3.8 2.5-3.7 2.7-7.3 5.7-17.1 14.3M457.9 558.6l-5 10-2.4 5-4.3 10.2-3.8 10.4-3.2 10.6-2.7 10.8-2.2 11.2-1.3 9.5-.7 8.6-1.4 6.5-.3 2.1v.8l.2.5.4.1.6-.3.8-.8 1.7-2.8 1.5-4 4-12 3.5-7.3 3.2-6 3.6-5.9 3.7-5.7 4-5.6 4.3-5.5 4.5-5.3 4.6-5 4.8-5 5-4.7 5.1-4.5 5.3-4.3 11.1-8.2 11.6-7.4 12-6.9 12.3-6.4 12.5-6.1 37.7-18 12.4-6.4 12.2-6.7 11.8-7.3 11.3-8M604.6 419.7l-6 4.6M510.9 486l-7 7.1-3.3 3.7-6.3 7.7-9 12-11.3 16.6M782.8 403.5l-1.8-5.6-1-2.5-2.6-4.6-1.5-2.1-3.2-4-3.8-4-4.2-3.9"/><path d="m764.7 376.8-5.3-1-5-.5-5-.1-4.7.3-4.7.6-4.6 1-4.5 1.3-4.6 1.5-9.3 3.5-9.8 3.9M639.5 488.4l11.8-1.5 11.8-2M674 410.6l-41.8 7.2-16.7 3-16.6 3.6-8.2 2-16.5 4.3M392.8 510.7l11.4-4.2 11.5-3.8 11.7-3.5 11.9-3.2 12-2.8 12-2.4 12.1-2 12.2-1.6 12.2-1.2 12.2-.7 12.2-.3 12.2.2 16.7 1 25 2 16.7 1.2 8.4.4 8.3.2 8.4-.1 8.4-.4 8.4-.7M492 456.8l-17.8 6.9-11.6 4.9-11.5 5.2-5.7 2.8-11.2 5.9-11 6.3-10.4 6.7-8.5 6-11.5 9.2M836 424.4l-49.8-18.1M837.7 425.6l-1.6-1.2M790.7 470.2l10.4-10 10-10.1 9.8-10.5 9.6-10.7"/><path d="m726.4 432.8-5.5.1-11 .6-27.8 2-11 .6h-5.5l-5.5-.1-16.5-.9-49.5-3.5-16.5-.8-8.3-.3h-16.7l-21 .4-23.2 1-.8.2-.2.5.1.4 1 .4 7 .4 12.4 2.7 15.3 3.8 13.4 3.7 13.4 4 8.8 2.8 26.4 9 11.8 4.3 17.5 6.8 11.4 5 5.6 2.7 10.8 5.8 16 9.5L689 500l5.5 2.8 5.6 2.5 5.8 2.2 5.8 1.7 6 1.3 6.2.8M870.1 498.9l-27.6-35M847.2 570.8h7.9l4.2-.3 2.3-.5 1-.5.8-1.5 1-3.5 2.3-11.3 1.1-7.1 2-15.3 1.5-14.2.4-5.9v-4.4l-.3-2.8M787.9 573.5l.3.8 1 .5 1.5.3 1.9.2 7-.4 9.7-1"/><path d="m820.6 509.7-3.2 4.3-4 2.7-5 1.2h-5.5l-6-1-6.4-1.8-6.4-2.4-6.4-2.7-17-8-4.5-1.8-8.7-3-18.6-6.3 10.5 10 16.4 14.8 5.3 5 5.2 5.3 5 5.4 4.6 5.7 4.2 5.9 3.8 6.2 3.3 6.6.5 1.6.4 1.7.2 3.6-.6 7v3.2l.2 1.3.3 1.3.5.1 1.1.1 3.7-.2 15.8-1.7"/><path d="m784.2 565-2 14.7-.8 13.1.5 11.9 1.7 10.6 3.1 9.5 4.4 8.6 5.9 7.7 7.3 7 8.7 6.6 10.2 6 11.8 5.9M833.3 666.2l15.7 6.3M894 656.8l-2.8-1.1-1.4-.8-2.7-1.8-3.8-3.4-2.2-2.4-2-2.3M888.2 684l2.4-1.3 2-1.8 1.8-2 1.4-2.4 1.1-2.6.8-2.7.4-2.9.1-2.9-.2-2.9-.5-2.8-.8-2.7"/><path d="m895.6 654.6-3.6 4.7-4 4.3M940.9 1004.2l3.2-3.8 2-4.3.8-4.6v-4.9l-1-5-1.7-5-2.3-4.8-2.7-4.6-3-4.2-3.4-3.8-3.3-3.1-3.4-2.4-9.2-4.6-11.6-4-13.3-3.3-14.6-2.4-15.3-1.3h-15.4l-15 1.2-13.9 2.9-12.3 4.6-10.2 6.4-7.5 8.5M794 968l4.2-2.5"/><path d="m803.8 962.1 9-4.2 10.6-3L835 953l12.5-.5 12.9.6 13 1.8 12.7 3 12 4 11 5.1 9.5 6.3 7.9 7.3M783.3 1017.3l.1.7.3.3M939.1 1052.3l5.2-9 3-5.6 2.5-5.8.9-2.7.5-2.6.2-2.4-.3-2.2-4-10.1-6.3-8.5-8.2-7.1-9.6-5.8-10.8-4.6-11.7-3.6-12-2.6L876 978l-12.1-1-11.6-.6-10.8-.1-9.6.1-10 .7-5.4.7-5.3 1-5.1 1.3-5 1.7-4.7 2.2-4.3 2.6-3.7 3-3 3.7-2.4 4.3-1.5 5"/><path d="m857 998.9 12.2 2.1 9 1.9 9 2.4 6 2M899.2 1009.5l2.8 1.1 3.4 1.8 5.4 3.2 3.2 2.4 1.3 1.3 1 1.1.8 1.2M799.2 1022.7l-6 3.5-5.2 3.3-4.3 3-3.3 3-2.3 3-1.4 2.9-.4 3 .5 3.4 1.5 3.7 2.5 4 3.5 4.7M942.5 1095.7l3.7-4 2.4-4.6 1.1-5.2v-5.5l-.8-5.7-1.8-5.8-2.4-5.7-3-5.4-3.4-5.1-3.6-4.6-3.9-4-3.8-3-8-5-9-4.7-9.9-4.3-10.6-3.8-11.2-3.1-11.4-2.5-11.6-1.6-11.4-.6-11.2.3-10.6 1.6-9.9 2.8M791.6 1058l7.7-4.1"/><path d="m802.1 1052.4 9.1-3.7 9.9-2.4 10.4-1 10.8.2 11 1.2 11.2 2.1 11 3 10.6 3.6 10.2 4.1 9.6 4.6 8.6 4.8"/><path d="m938.3 1143 6.3-18.7 1.8-6.7.6-3.3.5-3.2.1-3-.1-2.9-3.5-10.7-7.2-9.1-10.4-7.7-12.8-6.2-14.8-5-16-3.6-16.5-2.6-16.6-1.5-15.8-.6-14.6.2-12.5 1-10 1.8-5 1.8-4.3 3.1-3.8 4-3.2 5-2.4 5.3-1.6 5.6-.5 5.8.4 5.6 1.7 5.2 2.8 4.7 4.3 3.8 5.7 2.7"/><path d="m932.7 1183 5.5-5 3.8-5 2.3-5 1-5-.2-4.9-1.4-4.8-2.3-4.8-3.2-4.6-3.9-4.4-4.5-4.3-5-4-5.3-3.8-7.9-5-8.4-4.3-8.8-3.9-9.2-3.3-9.5-2.7-9.7-2.1-9.8-1.5-9.8-1-9.9-.1-9.7.4-9.5 1.2-9.2 1.9-5 1.3-4.9 1.4-4.7 1.7-4.5 1.9-4.1 2.1-3.6 2.5-3 2.8-2.3 3.3-1.4 3.6-.4 4.1.6 4.7 1.8 5.2 3.2 7.2 1.4 2.7 1.7 2.5 2.1 2.3 1.3 1"/><path d="m797.8 1140.8 11-1.2 10.8-.8 10.8-.2 10.8.3 10.6.8 10.5 1.5 10.3 2 10.3 2.8 10 3.4 10 4.1 9.7 4.9M927.8 1231.5l5.3-4.5 3.9-5 2.4-5.5 1-5.6v-5.8l-1.1-5.8-2.1-5.8-2.9-5.5-3.5-5.2-4.2-4.8-4.6-4.3-5-3.6-8-4.6-8.8-4.1-9.6-3.6-10-3-10.5-2.4-10.7-1.9-10.8-1.2-10.8-.7h-10.5l-10.3.6-9.7 1.3-9.2 2-2.8 1-3 1.6-3.3 2.2-3.3 2.6-3.2 3-3 3.3-2.6 3.5-2.3 3.7-1.8 3.7-1.1 3.6-.4 3.6.4 3.4.8 1.5 1.5 1.6 2 1.6 2.3 1.6 5.5 3 14.7 6.9M794.3 1193.5l4.5-1.8"/><path d="m805.8 1189 7.6-.8 8.9-.6 9.8-.3h10.4l10.9.6 10.9 1 10.7 1.6 10.1 2.3 9.4 3.1 8.4 4 7 5M924 1267.6l5.4-4 3.8-4.3 2.3-4.3.8-4.5-.4-4.4-1.5-4.3-2.5-4-3.2-4-4-3.5-4.4-3.2-4.7-2.6-5-2.2-9.3-3.1-9.3-2.8-9.3-2.3-9.3-2-9.3-1.5-9.4-1.2-9.3-.7-9.5-.4h-9.5l-9.5.3-9.7.7-9.7 1-7.1 1.5-5.6 2.4-4 3.1-2.8 3.7-1.3 4.1v4.3l1 4.3 2.4 4.2 3.4 3.8 4.4 3.3 5.4 2.7"/><path d="m797 1232.7 9.3-.8 9.1-.6 9.1-.4h9l9 .1 9 .4 9 .7 9 1 9 1 9 1.5 9 1.6M901.5 1238.2l5.8 2.4 2 1 1.7 1.1 1.4 1.4M793.7 1295.3l5.8.4 2.9-.1"/><path d="m922 1301 4.8-3 3.1-3.2 1.8-3.3.4-3.2-.7-3.1-1.6-3-2.5-2.8-3.2-2.6-3.8-2.2-4-1.9-4.4-1.3-4.4-1-17-1.7-13.5-1.1-15.4-1-16.3-.4-16.2.2-15 1-12.7 2.4-9.5 3.7-5 5.3.1 7.2 6.7 9.3"/><path d="m793.7 1295.3 5.8-4 8.8-3.3 11-2.7 13-2 14-1.2 14.8-.6h14.7l14.2.8 13.1 1.4 11.4 2 9.1 2.7M926.6 1289.1l-.9 3.5-.8 2-1.4 2-1.3 1.4M687 563.1l-1.7 2.4M681.8 585.9l2.9-5.6 2.4-5.4 2-5.5.6-2.4.2-2-.4-1.4-.8-.7-1.6.2M687 563.1l-.7 2.8-1.4 4-4.1 9.4M683.6 568.6l-3.7 8.8M677.9 582.5l-1 3M680.8 578.2l-1-.8-.6-.2-.6.3-1 .9M677.6 578.4l.2 2.5-.2 2.4-.7 2.2-.5 1-1.3 2-1.7 2-1.6 1.1-1.5.8-4.7 1.6h-.2v.2l2.7-.1 2-.4 1.9-.7 1.7-1 1.6-1.2 1.4-1.4 1.2-1.6 1-1.7.8-1.9.6-1.9.4-2v-2"/><path d="m675.6 590.5 1 .2 2-.1.9-.4 1.5-1 1.2-1.5.4-.9.4-1.8-.1-1M667.9 587l2.1 1.5 3.6 1.4M675.6 587.5l-3.8-.4"/><path d="m672 587.1-1-.5-1.7-.5-1.1.2-.7.6-.1.5.2-.4M688.8 570.5l2.2-.6 2.1-1.5 2-2.3 1.5-2.8 1.4-3.2 1-3.4.5-3.4V550l-.4-3-1-2.6-1.8-1.8-2.4-1.1-3-.1-2.5.8-2.2 1.7-1.9 2.3-1.4 2.9-1 3.1-.7 3.4-.1 3.3.2 3.3.7 3 1.2 2.4"/><path d="m686.2 566.2-1.8-2.4-.6-3 .4-3.2 1.1-3.3 1.7-3 2-2.6 2-1.8 1.8-.9 1.4.4.8 2v3.7l-1.3 5.7-1.2 4.6-.9 2.2-1.3 2M651 665.3l.7-6.1.7-10.2v-5.6l-.3-1.7-.4-.5-.6.8-1 2.4"/><path d="m651 643.1-1 8.3-1.1 6.2-1.4 6.1-1.2 4M649.4 647l-3 16.1M646 666.3v1.4l.5 1"/><path d="m647.6 663.1-1.8.3-.8.4-1.1 1-.5.6-.6 1.5-.3 1.8v1.9M645.3 666.3h1.5M637.2 677l2.6-1.5 7.3-3.8 3-2.1 1.1-1.2.6-1.2V666l-.6-1.3"/><path d="m650.1 666.4-8.5 5.2-3 2.2-1.3 1.3-1.2 1.5-1 1.6-.9 1.9-2.3 7.5 1.8-4 1.5-2.6 1.7-2.4 3.3-3.8"/><path d="m642.8 677.2-2 5.1-2.7 3.9-1 1.8 1-1.1 2.5-3.3 2.5-4.5 1-2.4.7-2.3.2-2.1"/><path d="M642.5 673.5v3l-.2 2M654.3 647.9l2-.9 1.4-1.5 1.1-2 .6-2.4.2-2.7-.2-2.7-.6-2.7-1-2.6-1.2-2.1-1.7-1.7-2-1.1-2.2-.4-2.6.5-2 1.1-1.3 1.7-1 2-.4 2.3v2.5l.4 2.6.7 2.5 1 2.4 1.4 2 1.7 1.7"/><path d="m649.4 644.1-1.1-2.5-.8-3.2-.3-3.4v-1.7l.3-1.5.4-1.4.8-1 1-.9 1.2-.5M653.6 629.2l.6 1.7.7 3 .8 5.3.1 3.2-.2 1.2-.4.8-.5.4M677.6 578.4l-.2.7.5.8M592.3 632.8l-4.8 8-1.3 3-.3 1.4v1.2l.6 1 1 .7 1.2.1 1.3-.7 1.3-1.3 1.2-1.7 1-2 .9-2.2.6-2.2.3-2v-1.7l-.6-1.2-1-.6zM592.3 632.8l-3.3 7"/><path d="m586.5 645.3-.7 1.7-.6 2.6v1l.3.6.4.3.5.1.6-.2.7-.6 1.6-2 .8-1.7M598.2 561.7l3.1-.5 3.8-1 4.2-1.7 4.5-2 4.3-2.5 4.1-2.7 3.6-2.8 2.8-3 1.9-2.9.6-2.8-.8-2.6M615 530.3l-7 3.9M608 534.2l-5.4 6.1M602.6 540.3l-5.8 9.3M596.8 549.6l-3.3 12.3M593.5 561.9l4-.2M599.6 559.7l-2 2.6-.7.8-.8.5v-.5l.8-1.2 1.6-1.4z"/><path d="m622.8 541 2.4-.3 1.6.1.8.3.2.4-.2.5-1.4.9-1 .2h-.8l-.8-.3-.6-.7zM620.4 546.6l-3.5 2.3-1.2.6-.7.2-.4-.1v-.3l.2-.4 1.4-1.1 2.5-1zM611.7 553.2l-5.6 3.2-1 .4-.6.1h-.1l.8-.8 1-.6 3.3-1.5zM608 534.2l-2.3-.5h-.8l-.6.2-.5.3-.3.5-.4 1.3-.5 4.3M628 535.6l-.7-1.5-1-1.4-1.2-1.2-1.3-1-2.8-1.4-1.3-.4-1.3-.2h-1.2l-1 .4-.7.5-.4.9M596.8 549.6l-1 .3-.7.6-.6.8-.4 1-.3 1-.3 2.5v6M602.6 540.3l-1 .2-1 .4-.7.5-1 1.4-.8 1.7-1.3 5.1M615 530.3l-3.1-1h-1.3l-.5.2-.4.3-.7 1.2-1 3.2M586 627l7-3.3 1.5-1 .9-1 .2-1 .4-4.2.1-9-.4-6.3-.4-2.7-.5-2.2-.6-1.7-.8-.9-.8-.3-1.1-.1-4.5.3-10.3 1.7M579 604.1l7 23M577.3 598.5l1.5 5M576.7 595.3l.6 3.2M583.7 592l.3 2.6"/><path d="m595.2 603.3 1.2-2.2.1-1-.4-.7-1.5-1M578.4 607.2h-.2l-.1-1.2.3-1.6.6-1.5v.8zM580.7 633l1.6-2 1.3-1.5 1-.8.9-.4h.5l.3.3v.6l-.4.7-.7.8-1.1.9-1.5.8M584.9 624.2l-1.6.1-1-.2-.8-.5-.3-.6-.1-.7.2-.7.3-.5.6-.3.6.1.7.5.7 1M582.7 617.2l-.9-.3-.7-.7-.6-1-.7-2.2v-1.6l.3-.3.4.3.5 1zM583.7 592l-1.7 2.8M578.1 601.1l-1.6 2.4-.2.7.2.7.3.4 1 .8M576.2 599l-2.7 4.2-.7 1.6 1.4-.8 3.9-3"/><path d="m580.2 608.1-4.9 9.1-.4 1.1v.8l.3.5h.9l1.4-.3 4.7-2.1M577.3 598.5l-3.7 1.8-.8.2v-.2l.6-1 3.3-4M573.7 600.4l-1 2.1 2.6-3M576.3 605l-2 4.2-.4 1.3.2.2 1-.2 4.8-2.8M583 617.2l-4 9-.7 2.5.2.8.5.4h1.1l1.7-.6 2.3-1.2M815.4 1951.3l.4.4.2 1.3-.7 4.8v.5l.3.1 1.3-.8 1.5-1.6 1.4-1.8.6-1.2.2-.6.1-6.1-.2-1.2-.2-.4h-.8l-.7.7zM777.8 2048.3l4-5.7 3-6.6 2.5-7.1 1.7-7.7 1.2-8 .7-8.3.5-8.4.4-32 1.2-25.7.5-8 1.7-13 .4-4.3v-3.6l-.3-1.3-.3-.8-.6-.2-2.8.9-2 1.5-1.2 1.8-.6 2.3-.2 2.4.8 10.7-.2 2.5-.5 2.2-1.1 1.8-5.1-5.7-1.1-1-.6.6-.5 1.5-.6 2.2-1.5 9.2-1.8 15.4-5.3 38.4-2 15.4-1.5 15.5-.5 7.7-.3 7.8-.2 7.7"/><path d="m836.2 1956.4 1.4-1.9.9-2.2.3-2.4v-2.7l-.5-2.8-.6-2.8-2.8-11.3-.3-2.4.2-5v-3.8l-.5-8.4-.8-5.6-.6-2.3-.7-1.6-1-1h-1l-14 5.2-4.7 2.1-4.4 2.5-1.8 1.4-1.6 1.6-3 3.3-.5-.6-1.4-2.9-5.8-16.8-1-2.8-.3-.3h-.3l-.8.3-2.6 2.2-1 .5h-.5l-4.6-1.1-1-.2-.6.1-1.4 1.6-1.1 2.3-1 2.8-.8 3.2-1.2 7.2-2 16.7-4.3 21-1.7 9.7-3.1 19.8-2.5 20.2-1.7 20-.6 9.9-.4 9.7-.1 9.4M817.2 2048.4l2-2.2 1.6-3 1.4-3.5 1.2-4 2-8.8 2.6-17.4 1.1-6.4"/><path d="m798.5 1954.8 6.2 4.8 1.3 1.3.5.8-.4 7.1-.5 7.2-4.4 36.5-.7 7.3-.5 7.3-.2 7.2v7.2l.4 7.1"/><path d="m797.6 1962.3 4 .8 2 .8.2.2.2 2-1 11.4-3.3 27.3-4 27.9-2 12.4-.8 3"/><path d="m835 1964.1 7.7-6.5 1.6-1.8 1.2-1.7.7-3.1.3-4.6v-5.8l-.6-6.7-.8-7.2-1.2-7.5-1.5-7.3-1.8-7-2-6.3-2.4-5.2-2.6-3.8-2.7-2.2-2.6-.9-11.4-2.6-7.2-2-7.3-1.4-13-2-7.9-.7h-3l-2.4.3-1.3.7-1.8 2.7-1.4 3.4-1.1 4.1-.8 4.6-.5 5-.3 5.2-.3 26.8-1.4 21.8-1.9 21.7-2.3 21.7-2.8 21.6-3.4 21.5-4 21.5M703.5 1935.6l-1 5-.3 3.6.3 2.6.7 1.7 1 .7 1-.1.8-.8.7-1.6.2-2-.3-2.7-1.1-3M702.7 1896.8v-.5M714.8 1938.3l1.5-16.7.2-4.8-.1-4.6-.5-4.3-1.1-4-1.8-3.2-2.5-2.5-3.4-1.5-4.4-.4"/><path d="m699.6 1951.3 3.2-2 3.3-1.7M702.7 1896.8l-.6 4.6-1.4 9-6.4 31.6-1.7 9.1M754.4 2043.8l-3.1 16.3M766.7 1938.1l1-17.3M767.7 1920.8l-1 17.3M865 1955.2l.4-1 .5-2v-3.8l-.6-6-.7-9.8-1-7.3-1.5-6-1.8-5-2-4.2-2.2-3.7-6.7-10.5-2-4-2-4.8-1.6-5.7-.4-2.8-.2-3.1v-3.3l.4-14.4v-3.5l-.3-3.4-.5-3.1-.9-2.9-1.2-2.5-1-.6-23.1-10-7.1-3.5-6.8-3.8-3.2-2-6-4.7-1.7 1.3-2.2 2.5-2.5 3.6-5.8 9.4-3 5.3-5.6 10.6-4.2 9.1-1.2 3.4-.6 2.3.1 3.2.7 3.3 2.3 8.4.7 3.2v7.6l-.4 6-2 17.9-.4 6M836.2 2048l4.5-1.2 3.8-3 3.2-4.4 2.7-5.5 2.2-6.4 1.9-7 1.5-7.4 1.3-7.3 2.8-19.4.9-4.6M797.2 1965.6l1.2 1.5.7 4 .2 6.1-.3 7.7-.7 8.8-.9 9.6-2.4 19.3-2.8 16.8-1.3 6.2-1.1 4.3M835.3 1964.6l.5-.5-1.9 27.4-.9 9.1-2.2 19.4-.7 9.8v4.9l.1 4.7.4 4.6.8 4.4M826.6 2019.8l-2.5 14.4-.6 5v4.9l.2 2.2.5 2"/><path d="m864 1961.7 2.1-4 1.8-4.3 1.4-4.7 1-5 .7-5.4.3-5.3v-5.5l-.4-5.3-.7-5.3-1-5-1.4-4.7-2.2-5.3-1.3-1.9-4-4.7-1.7-3-.4-1-1.3-6.4-.8-6.7-.3-6.9v-7l.5-21.7v-7.2l-.4-7-.9-6.9-1.5-6.6-2.2-6.4-.4-.5-1.8-1.4-32.6-27.4-2.4 1.4-9.1 6.2-20.2 14-19.4 13.8-7.8 5.8-1.3 1.1-2.6 6.8-1.3 6.6v6.5l1 6.4 1.7 6.4 2.2 6.4 4.9 12.8 2.2 6.5 1.8 6.6 1.1 6.8.2 6.9M789.6 2042.9l-2.7 7.8M687 2104.6l3-11.7 7.1-25 3.2-12.7 1.3-6.3 1-6.1.6-6 .2-5.9-.3-4-.9-4.5-1.3-5-1.7-5.5-4-11.5-6.5-17.2-3.4-10.3-1.2-4.5-13.9-61.6-.7-6.4-.5-1.5h-.2l-.3.4-1.6 4-2.6 7.8-3.2 10.4-7.8 26.6-11.8 43-5.7 22.6-1.5 7.2-.5 3.6.7 4 1.6 6.2 4.5 14M719.8 1915.8v-2.9l-.2-4.2-2.6-13.9-1.7-5.8-1.5-3.6-1.7-3.7-2-3.6-1.6-2.6-2-2-1.4-1-3-2-1.7-.8-1.6-.5-1.5-.2-1.3.2-1.2.6-1 1.2-.5 1.6-.4 1.9v2l.3 4.8 1.5 10 .5 4.3-.3 5.8-.7 8.2-1 8.1-4.8 28.3M708.6 1946.5l1.7-1.9M863 1968l-3.6 22.1-1.4 9-1 8.8-.3 8.3.6 7.2 1.6 5.6 3 3.6 4.7 1 6.5-2 8.6-5.6"/><path d="m886 1991.2.8-9.2 3-26 1.1-13.5.3-6.1v-5.4l-.4-4.5-.8-3.4-1.5-3.5-2.7-5-3-4.7-3.5-4.6-1.5-1.7-.8.3-2.7 2.6-.6.2-.2-.3-1.5-4.1-1-4.2-.6-4.3-.2-4.2v-4.3l1.2-21.6v-4.3l-.3-4.2-.4-3.7-1.3-7.4-5.2-25.8-1-7.5-.6-5.6-.2-5.7v-5.5l.3-5.6 1-11 3.1-27.5 2.7-37-1.5.7-2.2 2-2.9 3-10.8 12.5-4 4.4-3.9 4-3.8 3.2-3.5 2.3-3.1 1.1-2.6-.4-6.2-5.2-3.3 3.7-3 3.9-7.9 11.7-2.6 3.8-2.8 3.6-3.1 3.4-3.4 3.1-4 2.8-4.4 2.4-5.1 2-4.1 1-9.9.4-3.9.6-2 .5-2 .9-2.2 1.1-3 2.2-2.6 2.5-2.5 2.8-2.3 3-8.5 12.9-2.3 3-2.5 2.9-2.7 2.6-3 2.3-3.8 2-4 1.8-8.3 3.2-4 1.8-3.5 2.2-3.5 3-3.1 3.6-2.7 4.2-2.3 4.6-2 5-1.6 5.1-1.3 5.3-1 5.3-.8 5.2-.5 5-.4 8.9"/><path d="m724 1850.7 1.5-1.2 1.8-1.7 2.6-3.2 1.5-2.1 1-2 .3-1 1.3-6.4.7-2 .8.6 1.4 1.9 1.9 3 2.1 3.8 5 9.4 7.3 15.8 3.7 9.2 1.2 3.6M716.4 1878.5l-1-4-.2-1.8.2-3.1.4-1.6 1.2-3 3.7-7M729.2 2085.4l1.2-9.3 3.2-20.4 1.1-10.3.3-5v-5l-.2-4.6-.7-4.5-1.5-6.8-1.8-6.8-2.1-6.6-4.7-13.2-9.8-26.2-2.2-6.6-2-6.7-1.7-6.7M689 1885.8l-17-28-4-6.3-1.4-2-5 4-9.2 7.8-16.8 14.7-10 9.2-3.8 3.7-2.6 2.8-1.1 1.7-4.4 13.5-3.8 13.7-3.2 13.7-2.7 13.8-2 14-1.7 13.9-1 14-.6 14v14l.3 14 .8 14.1 1.2 14.1"/><path d="m893.8 1916.7-4.2-7.3-3-6.5-2.2-5.7-1.4-5.3-.7-4.9-.3-4.7.4-15.2v-5.9l-.3-6.7-.9-7.6-.9-6.2-4.4-25.3-2-12.8-1.4-12.8-.4-6.4v-6.3l.1-6.3.7-9.8 2.3-29.4 5.2-58.8 2.4-33.1 3.3-68 1.3-18.5.1-7-.4-13.3.3-2-.1-.5h-.3l-3.3 2.4-4.2 3.6-4.8 4.5-5.3 5.3-11.2 11.9-10.6 12.3-4.7 5.7-3.8 5.2-3 4.4-1.8 3.4-1.6 5-1.4 7.2-1.2 8.8-1.1 10.1-1 11-1.8 23.3-2 31.8-1.5 17.3-.2 19-.5 6.3-.5 3-.6 2.6-1 2.3-1.5 2.7-2.2 3-2.8 3.3-3.3 3.4-3.6 3.5-3.9 3.3-7.9 6.3-3.8 2.7-3.7 2.3-3.2 1.9-2.9 1.2-1.6.5-3.2.4h-6.7l-3.4.2-3.3 1-1.6.7-7.7 4.6-7.2 5-6.7 5.1-6.4 5.6-6 5.8-5.5 6.1-5.3 6.4-5 6.8-4.7 7-4.4 7.3-4.3 7.6-4.1 7.8M853.5 2032.1l1 2.5 1.1 1.8 1.4 1.4 1.6.9 1.8.5 2 .2h2l2.2-.3 9.4-2.3"/><path d="m723 1852.8 6.1-3.7 2.6-1.4 2.2-1.1 2-.6h1.8l1.7.7 1.5 1.4 1.5 2.2 1.5 3 1.5 4.2 1.7 5.1M727 1902.4l-7.6-12.4M748.3 2034.6v-11.4l-.5-11.2-1-11.2-1.4-11-1.6-11-2-10.8-4.6-21.7-10.2-43.9M664.7 1801.7l-3 2.5-11 8.3-53.3 39-3.8 9.3-3.1 13.7-2.5 17.2-1.9 19.9-1.3 21.7-.9 22.7-.4 22.9-.1 22.2.2 20.7.5 18.3.7 15.1.8 11.1M664.7 1801.7l29.3 46.6M851.9 2042.9l5 .1 4.7-.3 4.7-.7 5-1M894 1892.4l-1.5-3.5-1.1-4.7-.9-5.7-.5-6.6-.7-14.6-.3-22.1-.3-12.3-2.4-25.7-1.3-21-.5-21.2v-21.2l.5-21.3 1-21.3 2.6-42.5 4.4-63.7 1.5-28 .2-13.9-.1-13.8-.4-13.8-1.4-34.6.2-13.6v-5.7l-.3-4.4-.3-1.4-.4-.6-9.2 6.3-25.8 18.7-11 6.7-5.6 4-2.7 2.6-1 1.4-1.7 5-1.5 7.8-1.5 10.2-1.4 12.1-1.2 13.5-2.2 28.5-3.3 48.7-1.3 16-1.1 18.1-1.4 27.8-1.4 18.5-.9 9.2-1.1 9-1.4 8.8-1.7 8.6-1.5 3.8-2.6 3.6-3.6 3.2-4.2 3-4.8 2.7-5.2 2.6-5.3 2.3-19.4 7.4-3.4 1.5-5 2.6-5 2.8-5 3.2-4.8 3.4-4.7 3.6-4.6 3.8-4.4 4-4.2 4-4 4.3-4 4.4-3.5 4.4-3.4 4.6"/><path d="m733.3 1848.3 1-.8h.5l.7.2.5.7 1.4 2.8M724.7 1853.4l8.6-5.1M711 1811.9l-6.2 9.2M685 1789.7l-6.6-12.6-3.6-6-1.9-2.7-2-2.4-1.9-2-2-1.5-1.9-.8-2 .2-9.2 2.5-21.5 7-15 5.2-12.4 4.7-4.1 1.7-3.4 1.7-1 .7-5.6 14.8-5.1 18.5-4.5 21.6-4 24-3.3 25.4-2.7 26.3-2.1 26.4-1.5 25.9-.9 24.5-.2 22.5.4 19.6 1.1 16.2M685 1789.7l19.8 31.4M763.5 1983.5l-.2-11-.9-11.1-1.5-11.3-2.2-11.4-2.7-11.4-3.2-11.3-3.7-11.1-4.2-11-4.6-10.7-4.8-10.3-5.2-9.9M693.8 1848l-29.1-46.3M850.4 2047.2h2.8l4-.2 4-.7 5.3-1.2M893.6 1723.7l3.4-60 2-40 .8-20 1-40 .3-20v-20.1l-.2-20-.6-20.2-.9-18.1-.9-12-1.7-18-3.1-26-.1-.7h-.2l-.7.1-1 .7-35.5 14.7-15.2 6.7-2.8 1.3-1.1.8-1.4 4-1 4.1-1 4.4-1.1 9.3-1.7 28.1-5.4 49-8.9 89.6-4.7 44.8-.3 4.5-.2 5.3-.4 33.9-.3 6.7-.4 6.3-.8 5.5-1 4.7-1.3 3.5-.8 1.3-1 1.2-2.5 2.2-3 2-8.8 4.7M791.1 1748l-6 3.4-26.5 14.3-6.7 4-6.6 4-6.3 4.3-6 4.6-5.6 4.8-5 5.2-4.5 5.5"/><path d="m718 1798.1-19.1-31.4-10.7-16.5-5.2-7.5-5-6.5-4.4-5.2-3.8-3.4-3-1.3H664l-3 .4-3 .8-6.6 2-13.1 5.4-6 2.3-4.4 1.1-16.2 3-7.1 1.7-5.6 1.8-1.9.9-.9 1-9 21.2-7.9 23.7-7 25.5-6 27-5.1 28.2-4 28.7-3.2 28.8-2 28.6-1.2 28-.1 26.7 1 25.1 1.8 23.2M907.2 1618.8l1.6-44 .4-26.3-.2-26.4-1.2-27.8-1.1-18.9-1.4-18.8-2.6-28.1-2.1-18.8-5.9-44.3-1.5.2-2.6.9-3.5 1.3-13.7 6.3-23 11.2-7.7 2.8-4.2 1.8-1.9 1.3-.5.6-1.1 2.9-1 4-.9 5.1-.7 5.8-1.3 13-1.5 19.4-1 10.6-5.5 35.8-4.4 32-3.7 32.2-3.3 32.3-2.8 32.3-2.4 32.1-.3 10.5-.6 44.7-.7 17-.6 6.7-.7 5-1 2.8-.9 1-1 1-2.6 1.7-7.5 3.8-2.6 1.8-1 1"/><path d="m735.7 1781.5-2.2-5.1-3.7-7-5-8.2-6-9.2-6.6-9.8-7.2-9.9-7.3-9.5-7.3-8.8-7-7.7-6.4-6-5.5-4.1-4.3-1.7-3.3-.1-6.6.3-6.8.9-10 2.2-14.7 3.7-15 2.6-6.5 1.4-2.9.9-2.4.9-2 1-1.1 1-2 2.9-1.7 3.2-3 7-2.7 7.6-5.7 18.8-2.4 6.3-2.9 6-7.7 14.9-2.7 6-1.1 3-1 3-5.5 22.4-4.7 22.6-4 22.8-3.2 23-2.5 23.2-1.9 23.3-1.3 23.3-.8 23.3-.2 23.3.1 23.2.6 23 1 22.9M788.7 2044l.5-5.9.5-8.4M916.9 1538.8l-1.2-46.4-1.1-23.3-1.3-15.4-2.7-22.1-3.3-29.3-1.9-14.7-2.2-14.5-1.3-7.2-4.8-24.4-2-8.7-.3-.5-5.6.5-5.8 1-8.8 2.4-5.7 1.8-9.5 3.6-12.2 3.8-5.1 1.9-4.3 2-1.6 1.1-1 1.1-1.4 3.2-1 4.4-.8 5.5-.5 6.3-.5 14-.2 21.4-.2 6.2-.4 5.3-.6 4.2-7 37.4-3 18.7-3 18.6-2.7 18.7-2.4 18.7-2 18.7-2 18.8-1.4 18.8-1.2 18.8-.9 19-.5 19v46.3l-.2 19.2-.6 14.8-.4 4.6-.6 2.2-1 1.1-2.5 2-8 5.8-2.6 2.2-1.1 1.2"/><path d="m749 1771.5-3.4-9.8-3.5-9-3.7-8.3-4-7.6-4.3-7.1-4.7-6.6-5.1-6.3-5.7-6.1-6.2-5.9-7-5.8-7.6-6-15-10.7-4.3-2.9-4.4-2.5-4-1.9-1.7-.4-1.5-.1-9.8.8-19.5 2.1-18.6 1.2-4.4.4-4.2.7-4 1-3.7 1.6-3.5 2-3.1 2.7-2.7 3.5-2.3 4.2-3.4 8-3 8-7.4 20.3-4.7 12-3.7 8-12.5 23.6-3.6 8-1.5 4-1.2 4-1.2 5-1 5.1-.9 5.1-.6 5.3-1 10.5-1.5 26.3-2 22.7-2.7 35.5-2 35.5-.6 17.8-.5 17.7-.3 17.8v17.8l.2 17.8.4 17.7.8 17.8M921.8 1486.6l-1.3-28-2-29.2-1.2-14.8-1.6-14.9-2-14.8-2.2-14.6-2.7-14.4-3.2-14.1-3.7-13.7-4.3-13.2-2-2.5-3.9-1.7-5.3-1.1-6.4-.6-7-.1-7.5.3-7.4.5-7 .9-6.2 1-5 1-3.6 1-1.6 1-1.5 3.9-1.2 5.9-1 7.6-.8 9-.7 9.9-2.2 49.6-.5 7.2-.6 5.4-1.6 10.2-3.8 20.3-8.6 40.4-4 20.3-1.7 10.2-1.5 10.2-1.2 10.2-.6 7.3-.7 14.8-.2 15 .5 44.6-.3 65-.6 34.5-.6 14-.4 2.5-2 2.4-2.5 2.3-6.8 6-3.6 3.6"/><path d="m746.6 1714-4-4.5-5.6-5.3-6.8-6-7.8-6.2-8.4-6.4-8.9-6.3-9-6-8.8-5.6-8.5-4.9-7.7-4-6.8-2.7-5.6-1.5-3.4-.4h-7.2l-3.8.4-7.8 1-22.2 3.9-12 .7-6.4.8-3.5 1-1.4.7-3.2 3-3.4 4.6-3.5 5.8-3.4 7-3.5 7.6-6.6 16.3-8.6 22.7-4.4 10.5-7.3 18.8-6.1 22.4-5 25.4-4 27.8-3.2 29.3-2.3 30.2-1.5 30.5-1 30-.3 28.8.2 27 .5 24.3.8 21.2M925.4 1442.2l-4-31.8-4.2-31.2-2.6-16.4-3-16.2-3.3-15.2-3.6-13.5-4-11.2-4.4-8.1-4.7-4.4-1.2-.5-3.2-.4-5.6.2-10.5.9-17-.6-6.5.1-3 .3-2.5.5-2.2.7-1.5 1-2.8 3.6-2.3 5.7-2 7.2-1.6 8.6-1.4 9.4-1 9.9-1 10-2.4 39.7-.9 8.8-1.2 8.7-1.5 8.7-1.8 8.7-7.6 34.6-1.8 8.7-1.6 8.7-1.3 8.8-1 8.7-1.6 22.5-.6 11.2-.7 22.5-.4 22.5-.3 56.3v65l-.4 20.4-.3 7.7-.4 5.4-.5 2.5-2 2.8-3.7 4.1-8.8 9.3"/><path d="m764 1717.4-6.5-7.9-6.4-7.4-6.6-6.9-6.8-6.5-6.9-6.2-7-5.8-7.4-5.6-7.5-5.3-8-5.1-8-5-8.6-5-10.4-5.6-10.5-6.6-3.7-1.9-1.8-.8-3.3-.9-2.2-.2h-2.2l-4.7.3-4.8.8-14 2.6-25 3.2-12.9 1.9-.8.3-4.4 5.8-4.4 6.3-4.4 6.9-4.3 7.2-4.2 7.4-4 7.7-3.9 7.8-3.6 7.7-3.3 7.7-3 7.6-2.6 7.3-2.2 7-6.6 25.7-5.5 27.2-4.6 28.4-3.6 29.3-2.8 30-2 30.2-1.3 30.4-.7 30.2-.1 29.7.4 29 .7 28 1 26.7M838 1284.4l-.7 3-1.7 6-7.3 20.5-1.7 6-1.2 6.2-1 6.2-.7 6.3-.8 12.7-1.1 25.5-.6 6.4-.7 6.2-1 6.2-1 5-2.4 9.9-5 20-2.1 9.9-1 5-1.4 10-1.9 19.6-1.4 19.5-1.1 19.7-.8 19.6-.6 19.6-.5 39.4-.3 59-.4 39.2M893 1269l-.8-2.7-1.4-1.9-1.8-1.2-2.3-.6-2.6-.2-2.9.3-3 .5-15.3 4M927.3 1408l-5.5-45-2.5-15-1.5-7.5-1.8-7.3-2-7.1-2.4-7-2.8-6.3-6.3-11.8-3-6-2.5-6.1-1-3.3-.7-3.5"/><path d="m788.7 1743.4-5-13.1-6-12.3-7-11.6-8-10.8-8.5-10.1-9.4-9.5-10-8.9-10.5-8.3-11-7.9-11.5-7.4-11.8-7-13.9-7.5-11-7.2-4.8-2.9-4.6-2.1-2-.7-2-.4h-3l-5.2.8-8.7 2.1-3 .6-3.4.3-18.8 1.2-5.3.5-5.1.7-5 1-4.4 1.2-3.8 1.6-3.1 2-2.2 2.4-17.7 27.6-7.3 12-3.3 6-3.1 6-2.7 6-2.3 5.7-1.8 5.7-6.8 28.2-6 28.7-5.3 29.1-4.4 29.5-3.6 29.8-3 29.9-2.2 30-1.5 29.9-.8 29.8-.2 29.7.5 29.3 1 29M828.9 1287.6l.4 3.7.2 3.4-.1 3.1-.3 3-1.2 5.5-3.6 11.3-1.8 6.7-1 5-1 5.2-1 10.4-2.2 31.7-1.2 10.3-1.9 9.6-4.7 19-1.4 6.4-3 20.7-2 17.7-1.4 17.8-1 18-.7 18-.4 18-.2 36.1.1 53.8v17.6M828.9 1287.6l.4-2.2M900.3 1269.7l-3.9-22-1.8-11M929.1 1374.2l-2.4-17.7-1.5-9.1-1.8-9-2.2-8.8-1.3-4.2-2.8-7.5-3-6.5-6-12.2-2.7-6.3-1.1-3.4-1-3.4-.7-3.7M828.9 1287.6l.4-2.2"/><path d="m799.8 1728.6-1.2-2.9-1.3-2.8-1.7-2.8-3.8-5.4-4.2-5.3-8.7-10-12.1-15.2-9.7-11.3-9.2-10.2-9.1-9.1-9-8.3-9.3-7.6-9.7-7-10.3-6.8-11-6.6-12.1-6.6-13.3-6.8-14.7-7.2-.8-.2h-1l-2.8.4-3.2.8-7.3 2.2-4.3.7-8.2.8-19.2 1.3-4.7.5-4.4.8-4 .9-3.6 1.2-2.9 1.5-2 1.5-4.4 3.8-6.9 7.2-4.3 5.1-5.5 7.3-1.4 2-5.3 9.2-4.5 9.3-3.8 9.3-3.2 9.6-2.7 9.6-2.2 9.8-2 9.8-6.6 40.4-6.7 35.7-4.2 25.5-3.7 25.6-3.2 25.8-2.7 25.9-2.2 25.9-1.6 26-1.2 26-.6 26-.1 25.8.4 25.9 1 25.8M899.8 1218.7l-3-21M820.6 1287l-.2 2.1v2.2l.2 2.3 1 4.5 2.2 9.1.5 4.5-.1 2.2-.2 1.2-.8 2.5-3.5 7.4-1 2.4-1.5 6.9-2 11.4-1.6 11.7-3.6 29.2-4 27.6-2 16.3-1.5 16.3-1.1 16.5-.9 16.5-.6 16.6-.6 33-.4 65.8M830 1230.3l-2.5 18.7-3.2 18.7M907.6 1270.5l-4.9-31.7M929.3 1341.4l-1.3-5-1.5-5-1.6-4.9-7.6-18.8-3.5-9.5-1.6-4.8-1.3-5-1-5"/><path d="m799.7 1707.5-28-37.2-13.3-17-6.7-8-6.5-7.3-6.4-6.5-6-5.5-5.6-4.1-3.5-2.2-29.2-17-26.5-14.9-13.8-7.1-4.5-2-2.5-.7-2.8.3-16.7 2.3-14.6 2.4-14.4 2.6-6.3 1.3-5.3 1.2-4 1.1-2.2 1-2 1.6-3 3-8.7 8.7-15.3 16.7-9 10.3-5.8 7.3-1 1.8-1.5 5.8-1.1 6-1 6-.6 6.1-2.2 31-1.2 12.1-1 6-3 14.8-8.7 37.1-3.2 15-1.4 7.4-1.2 7.4-.9 7.5-4.5 44-4.3 44.2-1.9 22.2-1.5 22.1-1.2 22.2-.8 22.2-.2 22.1.4 22.2 1 22 1.7 22.1M812 1288.5l-.4 3v3l.4 3 1.4 6.3 2.6 9.4.7 3 .5 3.2.2 3-.2 3-8.6 75-3.9 37.5-1.6 18.8-1.5 18.7-1.3 18.9-1 18.9-.6 19-.4 19.1M820 1230.3l-1.3 6-1 6.3-2 25.6M831.2 1186.8l-2.5 12-2.2 8.5M852.7 1139.3l-6.6.4-2.8.7-1 .6-.9.8-.7 1-.6 1.4-.5 1.7-1 4.5M924.4 1309.6l-1.9-4-2-6-1.5-6-1.5-8.6"/><path d="m799.6 1689.3-16.7-20.8-17.2-20.4-17.8-19.8-12.3-13-6.2-6.3-3.1-2.5-5.3-3.7-7-4.5-8.4-5.3-18.9-11.3-18.7-10.8-8.3-4.5-6.8-3.6-5-2.5-2.8-1-2.6.1-9.7 1.4-21.1 3.9-21 4.6-9.5 2.7-2.5 1-2 1.4-7 5.8-14 13.3L542 1607l-5.8 6.7-1.3 2-3.3 7.9-2.6 8.3-2 8.8-1.4 9-1 9.2-.8 9.4-1.7 28-.7 9-1 8.9-1.5 8.5-5.4 28-5.1 28.2-4.7 28.2-4.3 28.4-3.7 28.4-3 28.5-2.5 28.5-1.6 28.6-.7 28.6.1 28.5 1.2 28.6 2.2 28.6M803.3 1290.6l2.3 18.7 1.3 18.7.5 18.8-.3 18.9-.8 18.9-1.2 18.9-6.2 75.8-1.1 19-.8 18.8M923.5 1274.7l-3.7-24.7M810 1231.4l-1.3 6-1 6.2-2 25.3M891.9 1102.6l-33.4.3-17.6.4-.4.3-.4.8"/><path d="m799.6 1671.4-6.6-11-7.7-10.7-8.6-10.5-9.4-10.3-10-10-10.6-9.5-11-9.2-11.2-8.7-11.3-8.2-11.3-7.6-11.1-7.1-13.3-8-5.7-4.2-9.2-7.6-6.3-4.7-3-2-3-1.8-3-1.2-2.6-.7-2.6-.1-4 .2-5.5.5-13.3 1.6-14.6 2.3-6.8 1.2-11.4 2.5-3.8 1.2-2 1-25.1 20.2-8.6 7.8-4 3.9-3.5 3.8-3 3.9-2.6 3.8-3.7 7.7-3 9-2.4 10-2 10.8-1.5 11.3-1.2 11.7-3.8 45.6-1.2 10-1.4 9-1.5 7.3-3.4 14.8-7.2 29.6-3.2 14.9-1.3 7.4-1.2 7.4-1 7.4-2 21.3-1.9 21.2-1.6 21.2-1.3 21.3-1 21.2-.9 21.2-.5 21.3-.3 21.3-.1 21.2.1 21.3.4 21.4.6 21.3M803.1 1290.7l.2 3 .5 3.3 4.2 18 .7 3.6.5 3.5.2 3.4-.1 3-.6 3-3 11.8-2.5 12.3-2 12.7-1.6 12.9-1.2 13-.8 13.2-.6 13.2-.7 26.3-.6 37.8M800 1232.4l-.5 3-.6 6M836.4 1089.3l-1.5 6.2-2.4 8.7"/><path d="m799.5 1655.5-6.3-10.3-7.4-10.3-8.4-10.2-9.2-9.9-9.8-9.7-10.2-9.5-10.7-9.1-10.7-8.9-10.8-8.4-10.6-8-22.6-16.6-13.5-11.4-7.6-6.3-3.7-2.8-3.7-2.5-3.6-2-3.3-1.5-3-.7-2.8-.2h-4.2l-11.2.6-13.4 1-13.2 1.5-5.8.9-4.9 1-3.7.9-2.2 1-2.1 1.6-3.9 4-3.5 4.4-6.7 9.3-3.7 4.2-2 1.9-4.1 3.2-9.9 6.5-4.9 3.4-4.3 3.6-1.9 1.9-1.5 2-4.5 8-3.9 10-3.4 11.8-2.9 13-2.5 14-2.1 14.4-1.9 14.6-1.6 14.4-3.7 38-1 9.8-.8 5.8-2.2 11.7-2.6 11.6-5.7 23.1-2.4 11.6-1 5.9-2.8 22.4-2.4 22.6-1.7 22.7-1.3 22.8-.8 22.8-.4 23v22.9l.1 22.9.4 22.8 2 68M803 1290.7l.1 2.6.4 2.8 3.9 18.2.4 3 .2 2.8-.1 2.6-.5 2.5-2.5 10.2-2.1 10.4-1.8 10.5-1.5 10.6-1.3 10.7-1 10.8-1.4 21.6-.9 21.5-.6 21.2M803.3 1187.1l-2.2 7.7-1.3 5.6-1 5.8-.2 4"/><path d="m799.4 1640.2-4.6-6.8-5-6.5-5.2-6.4-5.4-6.2-5.7-6.1-5.8-6-11.9-11.8-28.3-27.5-12.8-12.3-16.3-14.8-8.8-7.7-8.8-7.4-8.7-7-8.3-6.2-7.6-5-6.6-3.8-5.5-2.1-2.6-.3h-4l-5.3.4-13 1.2-14 1.8-12.4 2-4.9 1-3.5.8-2 .9-5.6 4.6-5.9 5.2-5.9 5.7-5.9 6.1-5.8 6.5-5.6 6.8-5.3 7-5 7-4.5 7.2-4 7-3.3 7-2.6 6.7-3.6 11.3-3.1 11.4-2.7 11.6-2.2 11.7-2 11.7-1.6 11.8-1.5 12-5 47.2-2.2 19-2.2 14.4-6 36-2 14.4-1.5 14.6-1.5 20.3-1.2 20.3-.9 20.4-.7 20.3-.5 20.4-.2 20.4v40.8l.6 40.7 1.2 40.8M802.8 1290.8l.4 4.4 2.9 14.9.4 4.7v2.2l-4.2 20.1-1.6 9-2.6 18-1 9.1-2 18.2-1.4 18.3-1.2 18.7M898 1022.3l-1-2.7-1.5-2.1-2-1.6-2.3-1-2.6-.6-2.8-.3h-3l-15.8 1.2M806.8 1139.6l-1.4 6.1-1.6 6"/><path d="m799.3 1627.6-4.9-7.1-5.1-7-5.3-6.8-5.6-6.6-5.7-6.5-5.8-6.4-12.1-12.4-12.5-12-14.7-13.9-3.8-4.6-9.8-14.9-3.7-4.4-2-2-7.6-6.3-10.8-8.6-12.6-9.3-6.5-4.5-6.3-4.1-6-3.7-5.4-2.9-4.8-2-3.8-1.1-18.8-1-17.4 2.2-15.9 5.2-14.5 7.8-13 10-11.8 12-10.3 13.5-9.1 14.8-7.8 15.7-6.6 16.3-5.4 16.5-4.1 16.4-7.4 36.8-6.1 37-5 37.3-3.8 37.5-2.9 37.6-2 37.7-1.2 37.8-.5 37.8v37.7l.5 37.7.9 37.6 1.1 37.4M931.7 1137.2v-5.4l-.3-2.6-.6-2.6M824.8 1047.8l-2.4 9.1M802.6 1290.8v9l-.5 9-.8 9.2-2.2 18.9-4.2 28.8-2.5 19.3-1 9.7-.7 9.6"/><path d="m799.1 1615.2-5.1-7.3-5.3-7-5.3-7-5.5-6.6-11.4-13-5.9-6.2-12.1-12.3-19.2-18.3-2.4-2.5-2.1-2.8-2-3.1-1.8-3.3-5.1-10.2-3.7-6.4-2-3-2.3-2.5-2.5-2.2-13.2-10-10.3-7.3-5.3-3.7-5.5-3.5-5.5-3.2-5.3-2.9-5.3-2.4-5.1-2-4.8-1.1-18.7-1.7-17.4 2-16.3 5.4-15 8.2-13.6 10.6-12.4 12.6-11.1 14.3-9.8 15.5-8.4 16.3-7 16.7-5.7 16.6-4.2 16.2-7.3 34.2-2.3 11.6-2 11.6-1.8 11.7-1.5 11.6-1.1 11.7-.7 11.7-.3 11.7.4 11.6.9 11.6.5 9-.2 10-.7 10.5-1.2 11.1-1.5 11.5-5.1 35.2-1.6 11.6-1.2 11.1-.8 10.7-.3 10 .3 31.8 1 47.9 1.3 48 2.1 63.8M904.4 944.2l1-9.2 3.7-23.8 1.5-12.3.5-5.7.2-5.2v-4.5l-.6-3.8-1.5-3.6-2.7-3-3.8-2.7-4.5-2.1-5-1.7-5.1-1.2-5.2-.8-4.9-.4h-4.3l-3.6.3-2.5.8-1.3 1-.4 2.1-.5 4.3-1 13.5-1.8 25.6-1.4 26M902.7 984.4l-1.4-11-.4-4v-3.7l.3-1.6.4-1.4M864.5 954.6l-4.3 2.6-3.8 1.5-3.4.7-3 .2-5-.1-2.2.2-2 1-1.7 1.8-1.7 3-1.7 4.5-1.6 6.3M803.5 1093.6l-2.8 9.7-.8 4.1-.1 2.9M802.5 1290.9l-.1 4.4-.4 4.2-.7 4-1.8 7.6-4.6 14.9-1 3.8-1 4-.7 4.3-.9 7-1 10.6-1.4 24.8"/><path d="m799 1603-16.7-26-4.5-6.2-4.8-5.8-3.3-3.5-3.6-3.4-3.7-3.3-15.7-13-3.7-3.3-3.6-3.4-3.4-3.6-3.1-3.7-2.8-4-1.9-3.2-8-14.6-4.5-7.5-2.3-3.6-2.5-3.3-2.6-3.1-2.7-2.8-2.9-2.4-11.6-8-10.8-7-11.6-7.2-5.6-3.2-5.3-2.8-4.8-2.3-4.1-1.6-3.3-.8-8.9-.8h-9l-9.2.8-9.2 1.5-9 2.2-8.8 2.9-8.6 3.6-8.1 4.3-7.7 5-7.2 5.6-6.5 6.3-5.8 7-3 4.3-2.8 4.5-2.7 4.8-2.4 4.9-4.6 10L522 1543l-3.5 8-3.2 6.4-8.5 15.8-3 6.5-1.3 3.2-1.1 3.3-2.9 9.8-2.8 10.8-2.6 11.5-2.5 12.1-2.3 12.5-2 12.7-1.7 12.8-1.3 12.6-.9 12.2-.4 11.8v11l.8 12 2.4 13 .5 3.7.1 3.7-.4 9.3-.7 9.3-1 9.3-6.1 46.6-1 9.3-.7 9.4-.4 9.3v9.4l.3 6.8.8 6.9 2.6 20.5.5 6.9.4 13 .3 13.1.3 26.3v65.7l.4 26.3.3 13M795.3 1319.9l-3.2 9-2 6.8-1.6 7-.6 4.8M799.6 1140.5l-.2 11.8M912.5 946.4l1.2-9 4.3-24.7 1.9-12.8.7-5.8.3-5.2v-4.3l-.4-3.4-.6-1.7-2.2-5-5.3-9.6-4-6.3-2-2.8-1.7-2.2-1.5-1.7-1.3-1-3.8-1.6-4.3-1.2-4.7-.8-5.1-.4h-5.2l-5.3.5-5 1-4.8 1.4-4.4 2-3.7 2.7-3 3.2-2.2 3.9-.5 1.8-.4 2-.1 4 .5 10.4-.3 4-.5 1.8-1.7 4.5-6.6 13.7-1.7 4.6-.6 2.3-.4 2.3-.4 4.4-.4 11.2-.3 4.5-.7 4.4-.5 2.1M910.1 986.9l-.8-3.7-.7-5.5-.9-13"/><path d="m798.8 1590.9-17-26.6-5.3-7.4-2.8-3.4-2.8-3.3-3-3-18.2-17.5-6.8-7-3.3-3.7-6.3-7.7-3-4.1-11.4-16.8-9.5-11.5-10.4-10.6-11.1-9.4-11.9-8-12.4-6.4-13-4.7-13.4-2.8-13.7-.8-14 1.6-14.3 4-14.3 6.7-10.4 5.5-5.3 3-5 3.3-4.5 3.8-2 2-1.9 2.4-5.1 7.5-4.7 7.9-4.4 8.2-4.1 8.4-7.7 17.2-14.4 34.7-13 28.3-4.5 12.3-3.8 12.7-3.1 13.2-2.6 13.5-2 13.7-1.6 13.8-1.2 13.9-.9 13.7-.6 13.5-.8 26v2.7l.7 5.4 3.4 16.2.5 5.4v2.7l-.4 7.8-1.6 15.5-5.1 38.8-.8 7.8-.5 7.8-.3 7.7v7.8l.6 8.1.9 8.1 2.6 20.2.8 8.1.6 17.1.7 39.3.5 78.6.6 26.2M800.6 1050.9l-.9 4-.2 5.8M814.6 1002.4l-1.9 7.6-2.1 7.5M799.5 1140.5l-.2 11.8M919.6 949.7l.9-2.8 2.3-10 2.6-13.6 2.5-14.8 1.8-13.5.5-5.5.2-4.2-.2-2.6-.8-2-1.8-3.2-8.7-14.9-13.4-21-4.2-6.3-.9-1-5.3-2.3-5.7-1.5-5.8-.7-6 .2-5.8.8-5.8 1.6-5.7 2.2-5.3 2.9-5 3.4-4.4 4-3.8 4.5-3.2 5-1.6 4-1.3 5.5-1 6.6-.6 7.5-.5 8.2-1.8 34-.7 7.7-1 6.7-1.1 5.7M917.5 989.4l-2.2-10.3-.7-5.2-.5-5.3"/><path d="m798.6 1578.9-17-25.4-9.1-12.6-6.4-7.7-4.8-5-3.2-3-8.4-7-4.7-4.6-1.4-1.7-2.2-3-7-11.6-2.3-3-1.2-1.4-6.5-6.7-25.4-27-6.5-6.6-6.8-6.3-7-6-7.4-5.6-7.7-5.2-8.2-4.6-8.6-4-6.2-1.7-7.1-.5-8 .6-8.5 1.5-8.8 2.2-9 3-8.8 3.3-8.5 3.7-8 4-7 4-6.2 3.8-4.8 3.7-3.2 4.2-4.7 7.7-5.8 10.7-6.7 12.9-7.1 14.4-7.4 15.2-14 30.2-11.1 25.2-3.7 9-2 5.6-3 11.1-2.9 11.6-2.5 11.9-2.3 12.1-2 12.4-1.6 12.4-1.4 12.6-1.2 12.4-.8 12.4-.5 12.1-.2 11.9.2 11.5.2 3.5 1 7 3.1 14.4 1.3 7 .4 3.6.2 3.5-.1 3.5-1.2 12.3-3.5 25-1.5 12.5-.9 12.4v6.2l.1 6.2 2.7 53.1 1.5 35.4 2 53.2 2.2 71M924.8 952.8l.8-2.6 2.4-10.4 3-14.9 3-16.1 2.4-14.6.7-5.6.4-4.2-.1-2.2-1.5-4-1.9-4.5-2.2-4.5-5.1-9.5-2.9-4.7-6-9.3-6-8.4-5.7-7-3.7-3.3-5-2.5-6-1.8-6.8-1.1-7.1-.3-7.4.4-7.3 1.1-6.9 2-6.3 2.7-5.4 3.5-4.3 4.4-2.8 5.1-2.5 8-2 8.2-1.5 8.4-1 8.5-.9 8.6-2 26-.8 8.7-1 8.5-1.6 8.5-2 8.2M925.3 993.5l-3.8-13.7-.7-3.4-.4-3.4M799.3 1142.1v10.2"/><path d="m798.5 1567.5-6.9-9L772 1530l-6.8-9.2-3.5-4.4-7.3-8-25.8-26.4-10.6-11.6-3.4-4-3.3-4.4-7.6-11.7-3.2-4.6-3.4-4.3-1.9-2-1.7-1.5-7.1-5.1-15.7-10.7-15.7-10-7-4-1.6-.5-7.7-.4-7.9.2-8 .6-8.2 1.2-8.2 1.6-8.1 2.2-8 2.6-7.7 3.1-7.4 3.6-7 4-6.5 4.6-6 5-3.6 4.3-4 6.2-4.4 7.8-4.6 9-4.7 10-9.4 21.2-18 42.6-3.3 7-11.2 20.6-3.3 7-1.4 3.6-1.3 3.6-2.6 9.3-2.7 11-2.7 12.5-2.5 13.4-2.4 14-2.1 14.5-1.9 14.5-1.5 14.1-1.1 13.5-.6 12.6-.1 11.1.5 9.6.5 4.4 1.3 8.7 3.2 17.5 1.4 8.8.9 8.8.2 4.4v4.6l-.6 9.3-4 28.1-.6 9.4v4.6l.2 5.3 1 10.6 4.1 31.7 1 10.5.7 31.4 1.5 91.1 1 39M929.5 955.7l1.8-11.8 5.6-31.6 1.3-9.6.6-9.4-.2-9.2-1.2-9.2-2.6-9.2-4-9.4-5.6-9.8-7.6-10.1-10.9-13.4-6.8-7.7-3.3-3-1-.5h-.8l-1.8.6-5.5 3-1.8.6-12.3-.4-9.8.3-5.1.4-5 .8-4.8 1-4.3 1.5-3.7 1.9-3 2.4-2 3-2.5 6-1.9 6.3-1.3 6.5-.9 6.6-.6 6.7-.3 6.8-.7 20.3-.4 6.7-.7 6.5-1 6.4-1.4 6.5-1.7 6.5-7.6 25.7M932.9 996.9l-3.3-13.1M799.2 1004v18.7"/><path d="m798.4 1557.9-8.3-10.6-34.8-45.6-13.8-17.6-14.4-17.7-14.7-17.1-14.7-16-14.2-14-13.7-11.7-12.6-8.4-11.4-4.6-1.8-.3h-4l-4.2.3-10.9 1.7-21.5 2.4-15.3 4.7-13.1 7-11.3 8.8-9.7 10.6-8.4 12-7.5 13-6.7 13.8-18.7 43.4-13.9 29.2-6.6 15.8-6.1 16.4-5.5 16.9-4.8 17.2-4.2 17.5-3.6 17.6-2.8 17.8-2 17.6-1.4 17.6-.6 17.4.2 17 .4 5 .7 5.2 2 10.5 3.5 15.9 1 5.3.8 5.2.6 5.2.2 5.2-1 14.3-.2 9.2v9l.1 9 1 17.9 2.6 35.7 1 18.4 1 37.2 1.3 74.7 1 37.3M933.5 958.2l1.4-9 5.6-30 1.6-10.5 1.1-10.5.5-10.4-.4-10.1-1.5-9.8-2.7-9.2-4.3-8.6-5.9-7.8-17.3-18.2-5.6-6.2-5.5-6.3-5.2-6.6-1.5-2.2-.8-.7-5.9 1.2-16 3.9L860 810l-11.8 3.4-5.7 1.8-5.3 2-2.3 1-1.9 1-1.3 1.1-.6 1-1.2 6.1-1.8 12.2-1.3 12.4-2.2 24.7L823 889l-1.1 6-2 8.7-2.3 8.7-10 34.3M803.8 962.1l-3.9 13.5-.6 3.4-.3 3.4"/><path d="m798.3 1548.4-4.4-5.6-8.5-11.3-20.4-28.8-8.5-11.4-9-10.9-26-29-8.4-9.8-8.1-10.2-7.7-10.8-1.9-2.1-3-3-4.2-3.8-10.3-8.7-5.7-4.5-11.4-8.4-5.1-3.4-4.5-2.7-3.5-1.8-2.3-.5-9.5.9-9.8 1.2-10.2 1.6-10.3 2.2-10.2 2.7-10 3.4-9.6 4.1-9 5-8.4 5.7-7.5 6.7-6.4 7.7-5.2 8.8-2.6 6-2 6.3-5.8 19-2.3 6.2-2.9 6.4-5.9 12.4-12.1 24.6-6 12.4-2.7 6.2-7.1 17-8 14.8-2 4.3-.8 2.2-6.1 20.7-4.7 20.8-3.5 21-2.3 21.1-1.5 21.2-.6 21.3v21.3l.5 21.3.8 21.3 3.4 69.9 1.3 13 4.6 32.5 1.3 13 .3 6.5v32.4l.7 38.9 1.3 38.9 2.3 51.7M946.4 870.2l-6-9.6-10-15.6-12.3-18-6.2-8.8-6-8.2-5.4-7-4.5-5.6-3.5-3.6-2-1.2-2.2.3-4 1.4-4.2 2-6 3.2-4.1 1.8-2.1.6-4.4.7-6.6 1.4-8.4 2.2-8.7 3-4 1.6-3.6 1.8-3 1.8-2.3 2-1.3 2-1.5 4.4-1 5-.8 5.4-.6 5.7-1.2 29.7-.4 5.6-.7 5.3-1 4.9-4.4 16.5-14 49.5M798.9 964.6v17.9"/><path d="m798 1538.7-49.6-61.8-25-30.6-2.9-3.7-2.7-4-2.7-4.4-8-14-5.6-9.1-2.9-4.3-3-3.9-3.3-3.5-3.4-3-17.2-12.9-8-5.5-4.1-2.5-4-2.3-3.8-1.9-3.6-1.5-3.3-1-4.2-.5-4.4-.2-4.7.1-4.8.6-4.9.8-5 1-4.8 1.3-4.7 1.5-8.9 3.3-4 1.7-9.4 4.6-16.2 7.2-6.2 3.3-3 1.8-2.6 1.9-2.4 2-6.5 6.8-5.6 7.3-5 7.9-4.4 8.2-3.9 8.6-3.6 8.7-10.1 26.7-3.6 8.7-4 8.5-8.5 16-3.5 7.8-3 7.7-8.3 24.1-10.6 32-7.7 30.6-5.2 29.6-3 28.7-1.2 28.2.3 28 1.5 28 2.3 28.2 5.6 58.4 2.6 30.7 2.1 32 .6 13 1 25.8 1.8 77.7 1.3 38.8M887.6 785.5l-3.9 1.6-5.1 2-27.5 10-14 5.5-6 2.8-5 2.8-3.8 2.6-2.2 2.5-.6 1.5-.5 1.8-.4 4.4v4.9l.6 13.2-.6 9.3-1 9.2-1.5 9.2-1.8 9.2-2 9.1-8.8 36.7-2 9.2-1.6 9.2-1.4 9.2M943.6 860.8l-3.7-6.6-3.8-6.4-4-6.2-8.4-12-8.7-11.7-22.8-29.2M643.9 965.5l-2.5.2-2.5-.5-2.5-1-2.4-1.7-2.5-1.9-9.6-8.4-2.4-1.7-2.4-1.3-2.4-.7h-2.2l-2.5.6-2.6 1-2.6 1.5-2.6 1.7-2.4 2-2 2.3-1.8 2.2-1.3 2.3-.6 2.2v2l.8 1.7 1.1.3 7 .8 5.1.4 12 .5h6l5.8-.2 5-.5 3.8-.8 2.5-1.3z"/><path d="m797.5 1529-18-22.3-18-22.5-17.6-22.7-8.7-11.5-17.1-23-8.4-11.7-16.3-23.6-1.5-1.7-3-2.7-9.2-7.9-17.3-14.2-17.7-14-21 .4-7.3.5-7 .9-3 .7-3 .8-6.1 2.5-6.8 3.6-7.2 4.4-7.4 5-7.5 5.8-7.4 6.1-7 6.5-6.7 6.6-6 6.7-5.3 6.6-4.3 6.3-3.2 6-4.2 10.4-9.2 26.6-4 10.5-2.2 5.1-2.5 5.1-13.7 25.4-9.3 21.2-8 21.7-6.5 22.2-5.2 22.7-4.1 23-3 23-2.2 23.4-1.3 23.3-.6 23.3v23.2l.7 23 .6 12.2 1 12.2 1.4 12.2 1.7 12.2 7.4 48.5 1.7 12.2 1.5 12.2 1.1 12.2.8 12.3 1 24.8 2.2 86.7 1.4 37.1M884.2 783.8l-5.5 2.4-5.5 2-5.7 1.9-17 4.8-5.7 1.7-5.6 2-5.4 2.1-5.3 2.6-5 3-5 3.6-.6.3h-.7l-.8-.2-5-2.4-.7-.1-.6.1-.5.5.2 3 3.3 29.2.4 6.9-.1 2.1-3.7 25.6-8.1 51.2-3.6 25.7M941 851.3l-5.6-9.5-2.9-4.7-6-9-9.6-13.2-13.3-17.4M573.4 950.4l-.3 17.2.3 6.6.3 3 .4 2.5.7 2 1 1.6 1.7 1.6 2.5 1.7 6.6 4 8 4 8.3 3.4 7.4 2.7 3 .7 2.3.4h2.5l5-.3 12-2.3 4.8-.4h2.4l2.3.4 25 5 13 3.3 3 .5h1l.6-.2 4.4-5.4 3-5.6 2-5.7 1-6 .2-6-.6-6-1.1-6.2-1.5-6.1-7.6-24.3-.2-3.3-.4-.7-2.6-.1-2.3.4-2.4.6-2.3.8-9.6 3.7-4.7 1.3-2.3.3-2.2-.1-8.5-1.4-7.8-1.6L628 933l-6.4-1.3-6.2-.8h-6.2l-6.2.9-6.5 2-6.8 3.5-7.4 5-8 6.8M573.4 950.4l.8-1.3M573.4 950.4l.8-1.3"/><path d="m797.4 1525-2.5-5.6-2.8-5.4-3.2-5.3-3.5-5.1-7.7-10-16.4-19.2-7.7-9.6-6.5-8.9-6.3-9.1-18.9-28.1L709 1400l-6.6-9.1-6.8-8.9-7.1-8.5-7.4-8.2-25.9-25.3-5.8-5.5-4-3.3-.7-.5H638l-7.7.3-8.2.6-8 .8-4 .6-6.8 1.5-3 .8-1.6.9-7.2 4.3-16.2 10.3-15.8 10.4-6.5 4.6-1.1 1.1-6.2 10.9-12 22-11.6 22.1-11.3 22.4-16.2 33.9-10.4 22.8-3.6 8.8-3.8 10.7-4 12.2-3.9 13.3-3.9 14.2-3.7 14.6-3.5 14.7-3 14.3-2.8 13.7-2.1 12.6-1.5 11.3-.8 9.4v5.3l.1 5.2 1 10.3 3.3 25.7.7 10.5v5.2l-.3 8.2-1.3 33.8-.2 17 .3 8.5.6 8.5 1 8.3 1.3 8.2 5.2 22 3 14.1 1.2 7.1 2.3 14.3 1 7.2 1.4 14.5 1 14.5 1.2 25.3.9 25.4 1.6 63.4 1.4 38M921 815.2l-3.4-5.3-2.6-3.6M939 842.7h-1M880.8 782.2l-5.7 2.4-5.7 2-5.7 1.7-22.4 5.3-5.5 1.7-5.4 2-5.3 2.4-5.3 3-5.2 3.9-1.6 1.5-1 .7-.8-.2-.8-.4-4.5-3.5-1.8-1.1-1.7-.5-.8.1-2 1-2 1.6-2 1.8-5.3 5.5-3.6 2.4-.7.6v.6l.2.3.9.2 1.2-.2 3-1.3 8.8-4.5 1.3-.5 1.1-.1.8.3 2.3 4.6 1.4 8.2.6 11-.2 13.2-.7 14.7-1.1 15.5-1.4 15.7-1.6 15.3-1.6 14.1-3.6 29"/><path d="m797.3 1523.3-3.8-8.5-4.3-8.1-5-7.7-5.2-7.4-5.5-7.2-17.3-21-5.6-7-5.3-7.4-5-7.7-7.4-13.6-6.5-10.9-20.7-31.7-6.5-10.8-3.8-7.1-4.8-12.8-1.7-3.5-1-1.5-1-1.5-2.5-2.6-3-2.7-3.5-2.7-15.8-11.3-3.7-2.9-3.3-3-2.9-3-2.2-3-1.5-3.2-.5-3.1.2-4.8.6-6 1-7 3-15.8 7.1-35.8 3-20 3-15.6 3.5-15.6 4-15.6 4.4-15.5 4.8-15.4 5-15.3 26.4-75.8 1.3-3.2 2-4.5 15.7-31.4 5.6-12 2-4.7 1.1-3.6.2-2.1-1.2-3.4-2.3-4.6-3-5.4-3.7-6-8.6-13.2-20.3-30-2.4-3.7-4-6.8-1.1-1.1-3.6.4-3.7.7-7.6 2.2-11.6 3.9-3.8 1-3.8 1-3.8.6-3.6.3-3.5-.1-8.3-.8-9.2-.6-9.8-.1-10.1.4-10 1.2-9.6 2-8.8 3.2-7.8 4.3-6.4 5.7-4.6 7.2-2.6 9-.2 10.8.1 9.1.2 4.4.4 4 .8 3.2.6 1.2 1.7 1.6 2.8 1.8 3.7 2.1 9.6 4.5 16 6.6 13.1 4.8 8.1 2.3 1.8.7.1 7.9-.3 9.4-.6 10.6-3.3 47.9-.6 11.6-.3 10.8.2 9.6.6 8.1 1.3 6.3 1.4 3.4 1.8 3.2 5.3 7.8 1.7 3.2.7 1.6 1.2 3.5 3.2 12 4 16.3 4 17.8 3.3 16.3 1.2 6.7.8 5.3.3 3.5-.2 4.8-.5 4.8-.8 5-2.1 10-6.8 25-2.3 9.5-2.2 3.6-4.6 3.7-6.6 4-8 4.1-29 13-9.5 4.5-8.8 4.5-7.4 4.5-5.7 4.5-3.5 4.5-36.9 71.4-11.8 24.2-5.7 12.2-5.3 12.2-5.1 12.3-4.7 12.4-7.6 21.7-4 12.5-4.2 13.2-4 13.7-3.9 14-3.6 14-3.2 13.9-2.7 13.3-2.2 12.8-1.5 11.7-.7 10.7v5l.4 5 .6 4.9 1.7 9.5 4 19 1.4 9.5.4 4.8.2 5.8-.4 11.7-2.3 29.2-.5 11.6v5.8l1.2 23 .8 10.6 1 7 1.5 6.3 2.1 5.3 5.2 10.4 1.2 3.6.4 1.8 2.2 13 1.8 13 1.4 13.3 1 13.2.8 13.3.6 13.4.6 26.6 1 53M938.8 836.1l-4.9.2M915.2 806l-2.5-1.5M877.5 780.5l-3.9 1.7-3.7 1.3-3.7 1-3.6.6-7 1-14.7 1.2-7.8 1.3-2.4.8-2.3 1.1-2.2 1.5-2.1 1.6-8 7.4-2 1.6-2 1.3-2 1-2.2.7-3.3.5-2.6-.1-2-.5-4.3-1.5h-1.4l-1.8.6-2.4 1.3-3 2.2-3.9 3.3-30.6 29.3 1.2-.4 19-6.8 18.2-7.6 5.8-2 2.3-.7 1.6-.3 1 .2 2.2 4.3 1.4 7.6.7 10-.1 12.2-.6 13.5-1 14.2-2.7 28.3-4.7 39.4"/><path d="m797.2 1521.7-6.7-16.9-4.5-10-4.8-9.8-4.2-7-2.8-3.9-2.9-3.7-3-3.6-9.7-10.6-6.2-7.2-2.8-3.7-2.6-4-2.4-4-7.3-13.6-18.8-34.2-10.8-20.8-6.6-13.9-1.6-4.2-4.6-12.8-2.2-4.8-1.2-2.2-1.2-2-1.4-1.5-11.3-9-3.3-3-2-2.2-.2-.8 1-9.7.7-10.3 1.5-43.7.6-11 .9-10.9 1.3-10.4 1.7-10 2.4-9.5 3-8.7 17.9-42.6 10.3-25.6 6.6-17.3 7.7-22 22.1-55.5 7-18.4 2.6-7.1 1.6-5.1.4-2.6-1-2-2.3-3.8-7.8-11.8-35.4-51-6.1-11.5-2.6-4.3-2.5-3.4-1.2-1.2-1-.7-3-.4-4 .3-5.3.8-12.8 2.8-37.8 10.2-3.6.7-7.4 1-21 2.8-6.7 1.2-6.3 1.5-6 2-5.8 2.7-5.5 3.4-5.2 4.2-5 5.2-4.5 6.3-5.5 8.3-1.9 4-.4 2.2.2 11 .5 8 .5 4 .8 3.8 1 3.7 1.4 3.4 1.8 3.1 2.2 2.7 2.8 2.2 6 3.8 10.3 5.2 7.1 3.2 7.3 2.9 7 2.4 9.7 2.9h.1v15l-.6 15-.7 15-1.1 15-2.7 30-8.3 75-5.1 52-2.3 17-1.4 8.2-1.5 7.8-1.8 7.1-2 6.2-2.4 5.2-1.9 3.2-2.3 3.2-2.6 3.2-5.8 6.2-15.7 14.7-5.6 5.5M547.6 1329l-12 25.8-24.8 51.3-12.2 25.7-11.6 26-5.5 13.1-5.2 13.3-4 11.5-3.5 11.7-12.2 47.6-8 27-3.9 13.7-3.3 13.9-1.4 7-1 6.9-.8 7-.4 6.9v6.8l.3 6.6.7 6.5.9 6.4 1.1 6.4 6.4 31.5 1 6.4.9 6.6.4 5.4.2 5.4-.2 11-.7 11.1-2.3 27.7-.2 5.4v5.5l.6 5.4 1 5.1 1.2 5 3.2 9.5 5.2 14.2 1.5 4.8 1.3 5 1 5 1.7 11.8 1.4 11.7 1.2 11.8.9 11.8 1.3 23.6.7 23.7 1.1 47.2M547.6 1329l1.1-.8M547.6 1329l1.1-.8M938.2 829.6l-8.2.3M914.5 805l-5.2-3M874.1 779l-4 1.6-4 1.1-4.1.7-4.1.4-4.2.2h-12.3l-4 .3-4.2.4-4 .7-4 1.2-2 .9-1.8 1.2-3.5 3.1-4.8 5.4-3.3 3.4-1.7 1.4-1.8 1.2-2 .8-1 .2-2-.5-6.7-3.4-1.8-.4-.7.2-3.6 1.8-3.5 2-3.5 2.4-3.4 2.6-6.5 5.6-6.3 6-17.5 17.6-5.4 6-5.1 6.2-7.4 9.6-7.2 9.9-2.3 2.4v.3l.2.2h1l8-1.3 14.7-3.3 7.2-2 .6-.4V863l-1.6-8-.2-2.2v-.8l.3-.5 1.6-1.2 1.9-1 4.3-1.6 4.8-1.2 9.5-1.9 4-1.1 12.1-5 5.1-2 4-1.3 1.4-.2.6.1 2.6 4.4 1.7 7.1.8 9.3v10.9l-.4 12-1 12.7-1.1 12.8-2.9 24-3.3 24.6"/><path d="m797.2 1520.1-7.1-18.5-4-9.5-4.2-9.4-4.6-9-2.5-4.2-4-6-3.2-4-8.5-9.8-3-4-1.5-2.2-16.5-31.3-18-35.6-11.6-24.2-5.2-11.5-4.6-10.8-3.9-9.8-2.9-8.7-.8-3.1-.5-3.5-.3-3.6-.2-7.8.5-16.1v-7.5l-.9-17.2-.2-9.2v-4.6l.7-9.1.7-4.5.9-4.6 1.2-4.5 1.5-4.4 1.9-4.8 2.2-4.6 5-9.2 8-13.4 5.1-9 2.4-4.7 2-4.7 2-4.8 25.7-72.7 6.3-18.3 6-18.4 2.7-6.7 9-20.9 4.5-11 1.7-5 1.3-4.5.5-3.5-.1-2.6-1.5-3.8-2-3.8-2.5-3.7-3-3.7-3.1-3.7-13.7-14.5-3-3.5-2.9-3.4-2.3-3.4-14.9-23.5-21-32.9-2.3-3.9-1-1.2-7 1.3-6.6 1.7-6.6 2-12.6 4.5-18.5 7.4-12.6 4.8-6.4 2.2-6.6 1.9-10 2.3-9.4 1.4-17.3 2-7.8 1-7.3 1.8-6.6 2.6-6 3.8-5.5 5.4-4.8 7.4-4.2 9.6-3.6 12.2-1.7 12.6 1 10.7 3.4 9 5 7.7 6.4 6.3 7.3 5.2 7.5 4.2 7.5 3.5 12.5 5.4 4.2 2.2 2 2.2 1 3 .4 3.6v4l-.5 4.1-.7 4.4-2 9-4.1 16.3-2.2 12.7-2.6 19.2-5.2 48.3-2.5 19.3-1.5 9.5-2.8 15.2-3.8 24.7-2.1 12.8-1.3 6.3-1.4 6.1-1.6 6-1.9 5.5-2.1 5.2-.8 1.5-1 1.4-2.6 2.6-5.8 4.8-2.6 2.6-1.1 1.3-1 1.5-2 4.2-1.8 4.4-3.3 9.2-6.9 24-3.1 9.3-1.8 4.5-8.3 19.2-23.4 53.5-7.2 17-7 17-6.9 17-6.5 17.5-6.3 18-6 18.6-5.8 19.6-7.1 26.6-7.3 24.3-3.4 12.5-1.5 6.3-1.2 6.2-1 6.2-.6 6.2-.2 6.2.1 20.3.4 12.4 1 12.1 1.2 8 1 3.9 2.3 8 4 11.9 2.3 8 .8 3.9.7 4 .3 4 .2 6.7-.3 7-.5 7-2.2 21.5-.6 7.1-.3 7.2v7l.4 7 1 6.8 1.6 6.6 1 3 2.5 5.9 7.2 14.5 2.4 5.9 1 3 .8 3 1.8 10 1.5 10.3 1.1 10.3.9 10.4 1 21 1 62.3M936 823l-10 .5M913.9 804l-8-4.7"/><path d="m870.8 777.3-2.5.8-3.7.7-4.6.5-10.7.8-21 1-6.4.7-1.2.4-7 7.4-4 4-4.3 3.5-2.2 1.3-2.1 1-2.2.5-2.1.1-2.2-.6-5.4-2.1-1.4-.3h-.4l-7.5 3-7.2 4.2-7 5.2-6.6 6-6.5 6.8-6.2 7.2-6 7.4-16.6 22-5.2 6.5-5 5.9-3.8 3.6-4.2 3.1-4.7 2.7-4.9 2.3-5.2 2-5.3 2-21.7 6.4-5.2 1.7-19.8 8.2-9.4 3.6-4.7 1.6-9.6 2.9-4.9 1.2-10.3 2-5.6.8-5.9-.1-15.6-1.2-5-.2-1.6.1-.8.2-1.7.8-.6.5-.2.4-2.3 6.3-11.7 27.7-2.7 7.3-2.3 7.4-1.6 7.3-1 7.3.2 7.2 1.2 7 2.5 6.7 2.4 3.7 3.7 3.8 4.6 3.8 5.4 3.9 5.7 3.8 21.5 13 3.6 2.6 2.4 2 .9 1.5-.2 3.7-.6 3.8-3.7 15.4-18.4 96.5-4.9 24.1-5.2 24.1-5.6 24-6.2 23.8-6.8 23.5-7.5 23.4-8.3 23-9.3 22.8-8.6 19.1-18.2 38.2-8.7 19.2-4.2 9.7-3.9 9.8-3.6 9.9-3.4 10-2.4 8-4.6 16-6.4 24.3-12.1 48.6-9.3 32.3-2.7 11-1 5.6-.9 5.5-.5 5.4-.3 5.4v9.4l.3 19.5.9 14.7 1 9.5 1.6 9.4 1.1 4.9 2.6 9.6 4.3 14.5 2.6 9.7 1.9 9.6.6 4.9.3 5.6-.1 5.8-.5 5.9-3.3 24.3-.5 6.1-.2 6 .2 5.8.8 5.6 1.5 5.5 1.3 3.5 3 7 8.2 17.5 3 7 1.2 3.6 1 3.6 2 8.5 1.6 8.7 1 8.9.8 9 .5 9 .4 18.4-.1 27.3.1 17.5"/><path d="m793.2 985.8-5.1-6.2-8.7-10-5.7-6.8-5.3-7-2.3-3.5-2-3.5-2.7-5.9-4.5-13.3-2.7-6.5-2.5-4.4-9-12.2-3.4-5.2-2.5-4.3-.5-1.5v-1l.7-1 1.6-.5 2.2-.5 17.3-1.9 2.1-.5 1.4-.6.7-.9v-1.8l-.6-4.9-2.8-12-1-5.6v-2.4l.2-2 .7-1.5 1.7-1.6 2.4-1.5 3-1.5 3.6-1.3 8-2.4 4.2-1 8-1.6 3.4-.5 5.3-.5M798.5 847.3l2.5 8.6 1.6 8.7 1 8.8.3 8.7-.2 8.9-.6 8.9-.9 8.8-1.2 9-5.2 35.7M797.1 1518.8l-29.7-67.3-10.3-22.2-10.7-22-11.1-21.8-5.9-10.4-15-25.7-3.7-6.8-3.4-6.7-3-6.4-2.5-6.1-1.8-5.7-1-5.1-.4-4-.2-5.5.1-13.9.6-16 .5-8 1.3-14.8.8-6.2 1-5 1-3.7 2.4-6.2 5.5-12.4 6.1-12.2 12.5-24.3 5.8-12.3 2.6-6.2 13.7-35.7 26.5-71.8M933.8 816.5l-11.6.7M913.2 803l-10.6-6.2M867.5 775.7l-3.7 1.3-4 .7-4.3.3-4.5-.2-18.4-1.7h-4.4l-4.2.3-3.8.9-3.5 1.5-1.5 1.1-3 3.2-6.2 8-1.6 2-1.7 1.6-1.7 1.4-1.8 1-2 .7-1.2.2-2.5-.2-2.5-.6-4.9-1.7-2.3-.5h-1.1l-6 1.5-7 4.1-7.7 6.2-8.1 7.9-8.5 9-25.5 28.8-7.9 8.6-7.2 7.3-6.5 5.5-5.5 3.2-9.4 3.9-55.5 23.8-10.2 4-2.3.8-17.4 3.2-5 .7-5 .3h-2.4l-3.6-.4-8.8-2-3.4-.6-3.4-.2-1.6.2"/><path d="m800.2 859.3 2 7.3 1.2 7.6.6 7.8v8l-.4 8-.9 8.1-1 8.1-5.4 32-1 7.5M784 948l-9.8-33.8-4.5-17.2-1.7-8.3-1.4-7.5-.7-6.7v-5.4l1-4 1-1 1.8-1.2 2.5-1.2 3-1.1 6.9-2.3 17.3-4.8M784 948l6.7 8.9M562 912l-2.9 4.2-3 6.2-3.3 7.6-3.3 8.7-3 9.5-2.9 9.8-2.3 9.9-1.8 9.5-1 8.7-.1 7.7 1 6.1 2 4.3 3.5 3.7 3.5 3.3 3.7 3.2 3.8 3 19.6 13.8 3.9 3 3.7 3 5.2 4.6-.1 7.9-.8 8.5-1.3 8.9-1.7 9.3-2 9.6-2.4 9.7-9.8 37.7-2.1 8.6-8.8 40.7-3.7 16.4-4 16.3-4 16.3-4.5 16.2-4.7 16.2-5 16-5.3 16-5.6 15.7-6 15.7-6.4 15.5-18 42.1-8.8 21.2-8.5 21.4-8.3 21.5-7.8 21.6-7.2 21.8-6.7 22-6 22.1-5.2 22.4-4.4 22.6-3.3 22.8-1.1 12-.4 12 .3 11.7.8 11.7 1.3 11.6 1.7 11.5 2 11.5 8.8 46.3 2 11.7.5 5v5.2l-.5 5.5-3 23.3-.6 5.8-.2 5.5.2 5.3.7 5 1.3 4.6 3.5 8 9.8 20.5 3.5 8.3 1.6 4.1 1.3 4.2 1.1 4.2 1.5 7.2 1.2 7.4.8 7.5.7 7.5.4 7.6.4 15.4.3 37.6M797 1517.8l-5.2-11.4-16.7-34.6-5.1-11.6-2.4-5.8-2.2-5.9-2.7-8.5-6.6-25.6-2.8-8.4-1.7-4.2-2-4.2-3.5-6.5-3.9-6.7-17.4-27.7-4.2-7.1-4-7.2-3.5-7.2-3-7.2-2.5-7.2-1.7-7.2-1.3-11.6v-11.7l1-11.7 2.2-11.7 3-11.6 3.6-11.6 4.1-11.5 4.5-11.3 13.8-32.6 7.9-20 11-29.3 28.9-78.2"/><path d="m801.8 871.2 1 4 .7 4.3.3 4.5v4.6l-.3 4.8-1.2 9.6-4.2 22.9-.3-.9-1.9-8.7-1-2.5-2.6-2.3-6.7-4.9-3.4-2.6-2.6-2.6-1-1.3-.5-1.2-1.7-6.5-1.1-5.4-.4-4.5.2-3.7.9-3 1.5-2.5 2.2-2 2.8-1.8 3.6-1.6 14.5-5.3M854.3 773.7l-28 .2-6.9.5-3.3.4-3.3.6-1.6.6-1.6 1.2-1.5 1.5-1.6 1.8-6.1 8.6-1.6 2-1.6 1.8-1.7 1.4-1.8 1-1 .2-2.7-.1-8.7-2.5-2.4-.2-1 .3-7.8 4.2-8.4 5.9-8.8 7.1-9 8.1-9.1 8.6-26.1 25.8-7.8 7.3-7 6.2-6.1 4.5-5.1 2.7-9.5 3.6-9 4-8.6 4.2-24.5 12.6-8.2 3.8-8.4 3.4-8.8 3-9.3 2.2-9.8 1.5-10.7.6M912.6 802l-13.3-7.8M931.6 810l-13.3 1M555.2 924.9l-4 7.4-3.7 7.7-3.4 7.8-3 8-2.5 8.1-1.8 8.2-.9 8 .1 8.1 1.2 7.9 2.5 7.7 4 7.4 5.4 7.2 2.2 2 2.6 2 3 2.2 9.8 6.5 6.4 4.5 2.8 2.4 2.3 2.5 1.9 2.5 1.2 2.6.3 3.7-.4 5.5-1 7-1.6 8.2-4.3 18.3-10.7 41.3-9 39.4-8.4 34.8-4.5 17.4-4.8 17.3-5 17.3-5.3 17-5.7 17-6 16.9-6.5 16.6-24.9 58.6-9.2 23-9.2 23.9-8.9 24.6-8.4 25-7.6 25.3-6.6 25-5.5 24.8-4 24-2.5 23.3-.7 22 .3 15.6.7 21 .5 10.6.8 10.3 1.3 10.2.9 5.2 2.2 10.2 4 15.2 2.3 10.2 1.8 10.3.6 5.2.2 4.9v5l-.4 5.3-2.1 21.5-.4 5.3-.2 5.2.2 5.1.5 5 1 4.8 1.5 4.7 1.8 4.7 2.1 4.7 2.3 4.6 7.5 13.8 4.7 9.3 2 4.7 1.8 4.8 1.4 5 1.3 5.8 1 6 .6 6.1.6 6.2.5 12.4.3 36.9M797 1516.8l-6-13-10-20-6.4-13.5-3-6.8-2.7-6.8-2.5-7-2-6.8-1.8-7-1.3-7.6-1.7-15.4-1.1-7.6-.9-3.7-1-3.7-1.3-3.7-1.6-3.6-2.7-5-3.4-5.6-17.5-27.3-4.3-7.2-4-7-3.6-6.8-2.7-6.4-1.9-5.7-.7-5v-11l.7-10.7 1.3-10.4 1.8-10.1 2.3-10 2.7-9.8 3.1-9.8 3.4-9.6 3.6-9.7 14.3-37 21.4-60.1 5.8-15 3-7.3"/><path d="m555 924.6-8.6 16.2-3.4 6.7-3.3 7-3 7.4-2.7 7.4-2 7.2-1.3 7-.3 6.6.8 6 2.2 5.1 2.6 4.2 5.5 8 6 7.9 3.3 3.8 6.5 7.4 10.3 10.6 3.5 3.3 2.5 2 .6.8-.3 5.7-.6 5.8-1 5.8-1.2 5.9-3 11.8-6.5 23.5-3 11-10.5 44.5-8.2 33.4-6 22-3 11-6.6 22-5 14.9-5.1 14.8-5.5 14.7-5.7 14.6-11.9 29.1-18 43.6-11.5 29.2-5.5 14.7-5.4 15.4-5 15.7-4.7 16.1-4.3 16.4-3.9 16.6-3.5 16.7-3 16.8-2.7 16.8-2.1 16.7-1.7 16.7-1.3 16.5-.7 16.3-.2 20.8.4 16.3 1 16 1.3 10 2 11.3 6.5 28 2 11.2.6 5.7.4 5.7v5.8l-.1 4.3-2 22.5-.5 9v9l.3 4.3.5 4.2.6 3.1.9 2.8 1 2.7 1.3 2.4 2.9 4.5 6.2 8.9 2.8 5 3.4 7.6 2.9 7.5 2.4 7.3 2 7.3 1.8 7.3 1.4 7.2 1 7.4 1 7.4 1 15.3.6 16.3M827.9 771.3l-7.4.6-6 1.2-4.5 1.7-3.6 2-2.7 2.2-2 2.4-4.7 7-1.7 1.8-2.2 1.5-2.9 1-3.8.3-6.2-.7-6.9-1.4-1.2.2-1.8.9-2.3 1.4-2.7 2-6.2 4.7-15.4 12.6-14.2 10.5-6.7 5.2-11.7 9.9-21 18.1-11 9.2-11.2 8.9-11.6 8.5-11.9 7.8-12.2 7-12.5 5.7-13 4.5-13.2 3-13.6 1M912 801l-16-9.3M929.4 803.6l-10 .9-5 .2M800.7 904.5l-11.1-10-3.6-3.5-2.3-2.8-1.1-2.3v-2l1-1.8 2-1.9 10.8-7.6 5-3.9M786.2 1491.6l-11.5-25-4.4-10-4-10.4-1.6-5.2-1.5-5.2-1.2-5.3-.7-4-.5-4-1.2-22-1-8.6-.8-4.1-1-4-1.4-3.6-2.5-5-3-5-3.4-5.2-11.4-16.1-3.7-5.5-3.4-5.5-3-5.5-2.4-5.6-1.7-5.4-1-5.5v-13.4l1.3-14.5 2.7-15.4 3.9-16.1 4.7-16.5 5.4-16.7 5.9-16.6 6.1-16.4 22.6-58"/><path d="m805.2 769.4-3.7 2.7-2.8 2.7-2.2 2.6-4.9 6.8-1.7 1.8-2 1.6-2.6 1.3-3.3 1-4.4.5-5.4.1M927 801.5l-7-1-3-.7-6-1.8-2.7-1-5.5-2.6-5.6-3-6-3.5M769.7 789.7l-10.1 7.9-11.7 9.5-41.3 34.3-14.8 12.1-14.9 11.8-14.6 11-14 9.9-13.3 8.4-12 6.5-10.6 4.2-7.5 1.8-15.4 3-7.6 1.9M802.2 891.6l-3-2.8-1-1.2-.2-.5.2-.5 1-.9 4-1.6M774.9 1465.1l-3.4-8.6-2.7-8.7-2-8.8-1.7-8.7-1.3-8.8-3.2-25.7-1.3-8.3-1.6-8.1-2.1-8-2.7-7.5-1.6-3.5-2-3.6-2.3-3.5-10-14.3-2.3-3.7-2-3.7-1.8-3.7-1.3-3.8-.7-3.8-.5-11.8 1-13.5 2.5-14.9 3.5-15.9 4.4-16.6 5-17 5.6-16.8 5.7-16.6 5.7-15.8 14.8-39.8M551.6 929.6l-3.7 5.6-3.4 5.5-3.1 5.6-2.7 5.6-2.4 5.6-2 5.7-1.6 5.9-1.2 6-1 6.1-.4 6.3-.2 6.6.3 6.8 1 3.2 2.1 3.9 3.2 4.3 4 4.8 18.4 19.8 3.9 4.6 3 4 2 3.5.7 2.7-.4 6.4-.9 6.4-1.2 6.6-1.6 6.7-1.8 6.8-12.2 39.6-4 16-11.8 49.7-5 19.8-5.4 19.7-6 19.4-4.8 14.1-5.2 14-5.6 14-5.8 13.8-23.9 55-5.7 13.9-5.4 14-5 14-4.7 14.2-5 16.8-4.7 17-4.4 17.2-4.1 17.3-3.7 17.5-3.4 17.5-3 17.6-2.7 17.7-2.2 17.6-1.8 17.7-1.4 17.6-1 17.6-.2 10.8.2 10.8.6 10.8 1 10.7 1 10.7 1.4 10.6 4.3 32 2.6 21.4 1 10.7.2 4.4v4.4l-.4 4.5-2 18.4-.5 4.5-.2 4.6v4.4l.4 4.4.8 4.2 1.3 4.7 1.5 4.3 1.8 4 2 4 2 3.6 9.3 14.1 4.6 7.5 2.2 4 2.5 5.4 2 5.3 1.9 5.1 1.4 5.2 1.2 5.1 1 5.2.7 5.2 1 10.6.7 17"/><path d="m766.3 788.6-42 31.5-14 10.7-13.8 10.8-17 14-6.8 6.2-10.3 9.8-7 6.4-7.2 5.8-3.7 2.6-3.8 2.4-4.9 2.6-4.8 2.5-9.5 4.4-4.9 2-9.6 3.5-10 3.3-15.2 4.9M547.4 934.3l-3.5 5.3-3 5.2-2.6 5.2-2.2 5.2-1.8 5.2-1.5 5.2-1.2 5.4-1 5.4-1.7 11.4-1.5 12.4M528.3 1002.4l28.5 36.3 6 8.3 1.9 2.8.6 1.7-.2 5.5-1 6.7-1.6 7.8-2 8.5-2.6 9-5.7 18.8-8.2 26.3-2.2 7.3-9.4 35-8.8 28.4-9.7 28-10.2 28-32 83.1-10.2 27.9-9.6 28-8.9 28.3-7.8 28.6-6.5 29.1-2.6 14-2.8 15.7-2.6 17.1-2.6 18-2.4 18.8-2 19-1.7 19-1 18.8-.6 18 .1 16.9 1 15.5 1.8 13.9 4.2 23.1 2.7 17.6 1.3 11.7.6 11.8v5.9l-.3 7.4-2.2 19.5-.5 7.7v3.8l.2 3.7.5 3.7 2.2 9.4 3.2 8.8 3.8 8.3 4.2 8 13.8 22.9 4.2 7.8 3.7 8 3 8.6 2 9 .9 9.8M801.8 770.3l-3 2.2-2.6 2.3-2.2 2.3-5.7 6.6-2 1.8-2.1 1.6-2.5 1.4-2.8 1-3.4.6-4 .2M924.5 800l-4.6-.7-4.5-1-4.2-1.3-4.2-1.5-4-1.8-4-2-7.7-4.3-15.6-9.6M767.8 1442.5l-2.1-7.5-2-7.5-1.5-7.6-1.4-7.6-2.4-15.1-4.4-30.5-2.8-15.3-.6-2.2-1-2.3-1.3-2.2-6-9-2.7-4.4-1-2.3-.7-2.2-.2-2.2.4-14.8 1.3-14.8 2-14.8 2.8-14.8 3.4-14.7 4-14.7 4.3-14.6 4.6-14.5 10-28.4 10.2-27.7M543.2 938.9l-8.5 12.7"/><path d="m762.9 787.5-52.3 39.2-14.8 11.4-14.6 11.7-10.2 8.4-5.8 5.6-14.8 14.7-6 5.4-3.2 2.4-3.1 2.1-8.7 5-4.4 2.4-9 4-4.5 2-9.3 3.4-18.8 6.2M798.4 771.2l-2.6 1.9-2.2 2-7.9 8.3-2 1.9-2 1.6-2.2 1.3-2.5 1-2.9.7-3.2.2M922 798.4l-4-.5-4-1-3.8-1-3.7-1.5-3.6-1.6-3.5-1.7-7-4-13.8-8.4M531.5 961.8l-2.7 18-2.3 18M532.7 1013l4.5 5.5 14.9 16.6 5.3 6.8 2 3.2 1.7 3.2 1 2.9v2.5l-1 4.5-1.4 6.1-4.3 15.6-15.2 49.8L528 1175l-6.4 22.7-6.9 22.5-3.7 11.2-3.8 11-4.2 11-4.3 10.8-7.3 16.6L472 1322l-7.2 16.7-3.4 8.4-3.1 8.5-2.8 8.6-5.7 19.3-5.6 20.5-5.4 21.6-5.2 22.4-4.8 23-4.5 23.2-4 23.4-3.6 23.1-3 22.7-2.4 22.1-1.7 21.2-1 20-.2 11.2.1 11 .3 11.2 1.3 22.2 1.8 22.2 4.2 44.3 1 11.1.2 3.7-.3 7.4-1.7 15.2-.6 7.6v3.7l.1 3.6.5 3.6 2.3 10.8 3.3 11.6 2.6 7.7 1.4 3.7 3 6.9 1.7 3 2.5 4 2.8 3.8 12.8 15 3 4 2.8 4 2.4 4 1.9 4.3 1.2 4.4.5 4.7M762.3 1421.2l-1.3-4.4-1-4.6-1.7-9.3-1.1-9.5-2-23.7-.8-7.4-1.5-6-4-12.8-1.7-6.3-.5-3-.3-2.7v-2.6l2.9-23.8 1.6-11.7 3.8-23.3 2.2-11.5 2.4-11.5 2.6-11.5 2.8-11.4 3.1-11.5 3.4-11.4 3.6-11.4M539 943.5l-2.1 3.2M550.9 930.4l-6.6 7.3M529 971.4l-1.8 12-1.5 12.1"/><path d="m537.2 1023.6 3 3.5 9.3 10 4.6 5.2 2 2.5 1.4 2.4 1 2 .4 1.7-.1 4.8-.8 5.5-1.3 6.2-1.8 6.5-4.2 14-11.3 32.6-11 35.4-5 15-10.1 29.8-10.8 29.5-11.5 29.3-12.2 29.3-10 22.8-3.1 8.3-3 8.4-2.6 8.5-2.5 8.5-2.3 8.6-4.2 17.3-14.4 62-6 27.5-5.5 27.4-4.9 27.6-4.2 27.6-3.5 27.7-2.7 27.7-1.8 27.8-.8 27.8.3 28 1.4 27.9 4 41.9.6 12.8.6 34 .7 10.5 1.4 10.4 2.3 10.4 3.6 10.8 5 11.3 6.9 11.9 8.8 12.7M759.5 786.4l-48.3 35.8-20.5 15.7-13.4 10.7-7.7 6.4-27.5 24-6.7 5.3-7 5.2-7.1 4.8-7.7 4.5-8.2 4.2-9 3.9-9.6 3.4M795 772.1l-4 3.2-7.8 7.8-4 3.5-2.2 1.3-2.1 1.1-2.3.7-2.3.2M919.5 797l-3.4-.6-3.4-.8-3.3-1-6.5-2.7-3.2-1.6-6.2-3.4-12-7.3M758.5 1398.2l-1.5-10.5-5.4-28-1.7-11.2-.5-5.4-.3-5.3v-5l.4-3.8.7-3.7 1.9-7.4 6.3-18.4 2.2-7.3.8-3.7 1.3-7.4 1.1-7.7 3.1-24.3 1.2-8.3 1.5-8.1 1.7-8 2.1-7.8 2.6-7.5 3.1-7.2 3.8-6.7"/><path d="m756.1 785.3-52.6 39.4-22.4 17.1-14.8 11.6-6.4 5.3-6 5.3-17.3 16-5.7 5.1-5.8 4.9-6.1 4.6-6.5 4.3-6.9 3.9-7.4 3.4-8.1 3M791.7 773l-3.2 2.6-7.7 7.2-4 3.4-2 1.5-1.8 1-1.8.7-1.5.3M917 795.4l-2.8-.4-2.8-.7-2.8-1-5.7-2.3-8.3-4.4-10.3-6.2M756.2 1373.7l-.9-6-3.7-19.2-.7-6.2-.1-3v-2.9l.8-7.7 1.3-8.1 1.6-8.5 2-8.6 2.4-8.7 2.5-8.8 2.8-8.7 6-17 3.2-8 6.2-14.7M548.4 932.8l-7 7.8M526.5 981l-1.7 12.2M536.5 1022l1 2.4 1.6 2.4 3.6 4.9 8.2 9.8 1.7 2.4 1.5 2.3 1 2.3.7 2.2v3l-.6 4.3-1.1 5.1-1.6 6-4 13-10.1 29.7-13.8 43.9-6.7 20-7 19.7-7.3 19.7-3.9 9.9-6.2 15-4.8 10.3-10.3 20.7-4.8 10.4-2.2 5.3-2 5.3-1.7 5.3-7.7 25.4-7.5 26.5-7.3 27.3-7 27.9-6.5 28.3-6.1 28.7-5.6 28.7-5 28.6-4.3 28.4-3.6 28-2.7 27.2-1.8 26.5-.5 14.2v7.2l.2 14.5.7 14.5 1 14.5 2.3 21.3 1 7.6 3.5 20 1 8 .2 4v7.6l-.4 3-1 6.2-2.7 12.8-.8 6.4v6.3l.5 3 1.2 5.2 2.6 10.3 4.7 15.3 10 30.3M524 990.6v.3"/><path d="m752.8 784.2-38.4 28-15.3 11.3-15 11.7-7.4 6-7.2 6-7 6.2-5.6 5.3-15.8 15.5-10.4 9.9-5.4 4.7-5.6 4.4-6 4.1-6.2 3.8-6.7 3.4-7.2 3M788.4 773.9l-14.1 12-3.4 2.6-1.1.7-.8.3M529.5 1005.3l3.7 9.3 2.6 6 5.6 11.8 4.7 8.8 5 6.6 1.4 2.2.1.4-.3 3.4-.7 3.5-.8 3.5-2 7.1-7.4 21-7 23.3-6.4 19.7-6.7 19.5-7 19.4-7.4 19.3-7.8 19.4-4.8 11-10.4 22-5 11.2-4.4 11.2-1.9 5.7-1.7 5.7-15.4 57-7.7 29.2-7.5 29.3-7.3 29.6-6.8 29.7-6.4 29.8-5.7 29.8-5 29.8-4 29.6-3.2 29.6-2 29.3-.3 7.1-.2 14.4.1 7.2.5 14.4.9 14.5 1.2 14.3 2 17.8 4.2 23.7 1 8 .2 3.8v3.8l-.3 3.6-1.2 11.2-.8 9.4-.4 7.8v6.7l.5 5.8.9 5.3 1.3 5.3 1.7 5.5 7.5 22 3.3 10.2M914.6 793.9l-2.1-.3-2.3-.6-2.3-.8-5-2.1-7.3-3.9-8.4-4.9M430.8 1865.8l.5.1M753.9 1349.4l-.4-8.3.4-8.7 1.1-9.1 1.8-9.4 2.2-9.6 2.6-9.6 3-9.6 3.1-9.5 3.3-9.2 9.3-25.2"/><path d="m526.3 998.2 3 6.8 15.2 30.1 3.7 8.5 1.1 3 .4 2.2-.2 2.5-.4 2.7-.6 2.7-1.7 5.7-5.3 14.2-1.7 5-12.8 43.6-4 12.3-4.3 12.2-5.2 13.3-3.1 7.3-6.7 14.4-13.8 28.6-6.5 14.5-3 7.3-2.8 7.5-6.7 19.6-6.3 20-6 20.3-5.4 20.5-5.2 20.6-5 20.8-9 41.7-17.3 82.4M416.6 1488.8l-3.1 23.3-9 58.6-3.4 23.4-2.7 23.4-1 11.7-.7 10-.3 10.2.1 10 .4 10.2.6 10.2.8 10.2 2 20.3 5 40.2.6 8.1-.1 7.3-.6 6.6-2.5 17.6-.3 5.7.3 5.8 1.2 6.3 2.2 6.8 3.5 7.6 5 8.5M749.4 783.1l-46.2 34-15.2 11.7-14.9 12-7.2 6.2-7 6.3-5 4.8-23.4 24.7-4.8 4.6-5 4.4-5.4 4-5.6 3.8-6 3.2-6.5 2.8M785 774.8l-11.3 7.5-4.5 3.6-2.6 2.8M794.2 1210.7l3-7.5M761.2 1317.2l7.9-31 3.3-12.4 5.5-18.5 4.2-12M452.2 1886l1.1 1.2.7.3"/><path d="m414.8 1492.9-1.5 11.4-3.3 22.7-9.3 56.9-3.3 22.7-2.7 22.8-.7 9.7-.4 9.8v10l.4 9.8.6 10 .8 10 2 19.8 5 39.1v4l-.3 5.5-1.9 22.5-.5 8.4-.2 8.2.3 7.8.8 6.8 1.6 5.7 2.5 4 3.5 2.2M528.7 1005.8l2.8 6.1 9.8 17.5 3.2 7 1.2 3.4.8 3.2.4 3-.1 2-.3 2-.6 2.1-1.4 4.5-5.2 13-4.4 14.4-4 12.2-4.4 12.2-4.4 12-9.4 23.6-29.4 71-2.2 5.9-4 11.8-3.4 12.1-9 36.8-10.2 38.7-12.2 49.3-11.5 49.4-14.5 66.1M746 782l-15.6 10.5-15.6 11.3-15.5 12-15.1 12.3-21.8 18.8-7 6.2-4.4 4.3-4.3 4.5-4.2 4.8-12.5 14.6-4.3 4.6-4.5 4.5-4.7 4-4.9 3.7-5.3 3.1-5.6 2.5M781.8 775.6l-12.7 7.7-3 2.1-2.3 2.4M773.1 1281.3l3.3-12.4 2.7-9.2 3-9.2 2.1-6M431.4 1866.5l-.1-.3"/><path d="m413 1497-1.5 10.9-1.7 11-2 11-8.7 44.4-2 11-1.7 11.2-1.5 11-1 11-.6 11-.4 19.2.4 19.5.7 13 1 13 1.3 12.6 1.3 8.4 4.2 22.7 1 9.1.3 4.4v4.3l-.4 4-1 5.8-2.8 11.7-1.2 6-.6 5.8v3l.2 3 .7 3.6 1.4 4.8 4.1 12 5.4 13.4 6 13 3 5.8 3 5 2.6 3.9 2.3 2.6"/><path d="m416.1 1833.8-2.5-2-.6-.7h.6l1.6.4M451 1888.4l4.2.2M531 1013.3l2 4.3 7.6 13.6 2.4 5.5.7 2.4.4 2.3v2l-2.5 12.2-3.1 12.2-3.7 12.1-4 12-4.5 12.1-4.8 12-5 11.9-20.2 46.7-4.8 11.4-9 23.6-8.3 24-7.6 24.2-6.9 24.6-6.4 24.8-6 24.9-5.6 25-5.3 25.1-20.5 99.6M742.4 782.5l-15.7 10.4-7.8 5.6-15.5 11.5-15.2 12-7.4 6-14.7 12.5L652 853l-3.7 3.6-3.7 4.2-3.7 4.5-11.4 14.6-3.9 4.7-4 4.5-4 4-4.3 3.6-4.4 3-4.6 2.1M778.5 776.5l-16.3 10.8"/><path d="m411.2 1501-1.4 10.6-1.7 10.7-2 10.6-8.3 42.6-3.8 21.4-1.6 10.6-1.2 10.7-1 10.7-.3 7.2-.2 7.3v14.7l.7 14.8 1 14.8 1.5 14.6 1.7 14.5 1 6.8 3.2 18 .9 7.3.2 3.5v3.5l-1.2 16.1-.4 12 .1 11.1.8 10.6 1.6 10 2.5 9.5 3.5 9.2 4.5 9 5.7 8.7 6.9 8.7 8.2 8.8 9.7 8.9M533.2 1021.5l5.6 11.2 1.4 3.3 1 3.2v1.5l-.4 5.4-1.8 7.7-2.9 9.5-3.7 10.9-4.3 11.8-9.7 24.9-13.6 33.5-5.8 14.8-9.3 26-8.6 26.3-8 26.3-7.6 26.4-7.1 26.5-6.8 26.6-6.5 26.7-6.2 26.7-6 26.8-17.4 81M738.7 782.8l-16 10.5-8.2 5.5-16.1 11.6-15.9 12-7.7 6.4-7.5 6.4-7.3 6.5-7 6.6-6.7 6.8-4.7 5.4-23.1 28.5-6.7 7.5-2.4 2.3-1.6 1.1M775.4 777.5l-6.3 3.6-8.5 5.6"/><path d="m535.2 1030.2 1 5.7-.5 8-2 10-2.9 11.4-3.8 12.4-4.3 13-4.7 13-4.8 12.7-15 38.4-9.3 26.2-8.6 26.3-8 26.4-7.5 26.5-7.1 26.5-6.7 26.7-6.4 26.8-12 53.7-17.5 81.2M411.7 1500l-2.3 3.2-2 4-1.5 4.7-1.3 5.3-1.1 5.6-.9 5.8-2.8 27.5-4.3 26-1.6 10.8-2.8 21.8-1 10.8-.8 11-.6 10.8-.2 11v11l.4 11 .7 11 .6 5.6 1.6 11.2 3.8 22.6 1.5 11.3.5 5.6.2 5.6v5.5l-.3 3-.9 6.3-1.8 9.6-1 6.4-.2 3.2v3.2l.2 3.1 1.3 6.6 4 16.3 3.7 13.3 2 6.6 2.2 6.2 2.1 5.5 2.2 4.6 2 3.4 2 2M735 783.2l-16.2 10.6-8 5.5-16 11.3-15.5 12-7.6 6.2-7.5 6.3-7.3 6.5-7 6.6-6.9 6.8-7.3 7.9-7 8.2-17 20.7-7.1 8-3.7 3.8M772.2 778.5l-6.7 3.7-6.6 4"/><path d="m536.4 1035.1-33.6 94.8-8.3 23.8-8 23.8-7.9 24-7.4 24-7.1 24.1-6.6 24.2-6 24.4-5.5 24.5-15.5 76.1-7.2 32.5-5.4 21.5-4.5 14.8-1.1 4.3-.8 4.3-.2 3 1.7 8.9.2 2.3-.2 1-3.5 6.5-2.8 6.4-2.4 6.8-2 7.2-1.6 7.5-1.4 7.6-2.2 15.5-2.6 22.5-2.2 16.4-2 18.8-1 9.3-1.2 18.6-.4 9.3-.4 18.6.1 19 .3 9.6.3 5.5.6 5.6 1.8 11.2 4 22.6.7 5.6.5 5.6.2 5.6-.5 19.1v6.4l.5 12.4.5 6 1.6 12.2 1 6.1 1.4 6.3 3.3 13.3M731.3 783.6l-16.8 11.1-8.3 5.7-16.2 12-15.8 12.4-7.8 6.4-15.1 13.3-14.8 13.8-7.6 8-7.2 8.2-17.5 21.1-7.3 8.2-3.9 4M769.1 779.5l-8 4-3.8 2.2M415 1861.2l11 5.6"/><path d="m727.7 784-14 9.3-13.3 9.5-12.5 9.8-12 10-11.4 10-11.1 10.5-11 10.6-10.8 10.8-44.6 45.7M766 780.5l-9.6 4.9M535.6 1031.7l-11.1 30.9-23.2 62-11.3 31.2-5.4 15.6-5.1 15.6-4.9 15.7-4.5 15.7-5.1 19-4.8 19.2-9.2 38.4-21.6 96.4-9.2 38.4-5.7 22.5-1.3 7.1-2.7 18.5-1.4 7-.8 3.3-5.2 17.3-4 15.3-3.6 16.3-3.3 17-2.8 17.5-2.3 17.8-1.8 17.8-1.2 17.8-.6 17.3v16.8l.9 16 1.5 15 1.7 10.8 4 23 1.6 11.7.5 5.7.3 5.7v5.4l-.2 5.3-1.8 18.6-.4 7.9.2 7.7.3 3.7.6 3.5.8 3.4M422.2 1870l19.1 9.7"/><path d="m724 784.4-13 8.7-13 9-12.7 9.5-12.6 9.7-12.3 10.2-12 10.5-11.8 10.8-11.5 11.1-11 11.5-10.7 11.7-10.2 12M763 781.5l-7.3 3.7M534.8 1028.4l-11.4 31.7-17.6 47.7-11.5 32-5.6 16-5.3 16-5.1 16.1-4.8 16.2-4.4 16.2-7.8 30.4-7.6 30.5-22.2 91.6-21.2 83.9-4.6 18.7-4.5 19-4.2 19.2-3.9 19.3-3.4 19.2-2.8 19-2.2 18.6-1.3 18.3-.5 17.7.1 14.5.5 14.3.7 14.4 1.9 28.6 4.2 57.3.8 14.4.6 14.4.3 14.4M429.4 1878.7l2.5 1.1 3.4 1.2 3.5.6 5.3.4M463.4 1929.2l-2.8 8-8.5 21.6-3 8.7-1.2 4.1-.9 4-.5 4-.7 7.8-.2 8.1.1 8.2.4 8.3 1.2 16.9 3.4 33.4 1.2 16M760 782.5l-5 2.4"/><path d="m719.7 785.5-13 8.7-12.8 9-12.7 9.4-12.4 9.7-12.2 10.2-11.9 10.4-11.6 10.8-11.3 11.1-11 11.4-10.5 11.7-10.1 12M534 1025l-10.8 31.4-10.6 31.4-10.3 31.4-10 31.4-10 31.5-9.5 31.6-9.4 31.6-9.1 31.7-9 31.8-8.6 31.9-8.5 32-17.2 67.9-8.7 36.3-4 18.3-3.8 18.4-3.4 18.5-3 18.5-2.6 18.5-2 18.5-1.5 18.5-.7 18.4-.1 14.5.4 14.4.7 14.4 2.2 28.7 5.2 57.6 1 14.4.8 14.4.4 14.5M429 1878.3l8.6 93 2.6 31 2.4 31.1 1.9 31.2M757 783.4l-2.6 1.3"/><path d="m715.3 786.7-12.8 8.5L690 804l-12.5 9.3-12.2 9.7-12 10.1-11.8 10.4-11.5 10.8-11.1 11-10.8 11.3-10.4 11.6-10 11.8M533.3 1021.8l-11 31.7-10.8 31.8L501 1117l-10.3 31.8-10.1 32-9.9 32-9.6 32-9.5 32.1-9.2 32.2-9 32.3-8.8 32.3-13 49.8-8.7 35.6-4 18-4 18.3-3.5 18.3-3.2 18.3-2.7 18.4-2.4 18.4-1.7 18.3-1.2 18.1-.5 18v14.5l.6 14.5.9 14.5 2.5 28.8 4.4 43.2 1.3 14.4 1.1 14.5.8 14.5.4 14.6M424.6 1872.8l3.7 44.6 3.3 44.4 3 44.6 2.5 44.6"/><path d="m711 787.8-11 7.3-10.6 7.7-10.3 8-10.2 8.2-10 8.5-9.7 8.7L630 854l-37.7 36.6M590.4 892.9l-14.8 19.3M532.6 1018.8l-22.2 64.7-21.6 64.7-10.5 32.5L468 1213l-10 32.6-9.7 32.7-9.4 32.7-9 33-8.7 33-8.3 33.2-8.2 34.5-4 17.5-3.8 17.6-3.7 17.6-3.3 17.8-3.1 17.8-2.7 17.9-2.3 17.8-1.8 17.8-1.3 17.8-.6 17.7v8.1l.3 8 .6 8 .7 8 2 15.7 6 39.2.9 8 1.2 13.1.7 13.2.5 13.2.5 39.6M420.1 1867.4l2.6 33.5 2.1 33.5 1.8 33.5 4.7 100.7M415.7 1862l1.4 17.8 1.2 17.8 1.7 35.6 1.3 35.6 2.2 71.3 1.5 35.6"/><path d="m532 1016.3-6 14.5-5.6 14.5-5.3 14.8-5 14.8-4.8 14.9-18.5 59.8-4.8 15-5 14.7-11 31.1-5.6 16.4-5.3 16.5-5 16.5-4.9 16.6-9.2 33.2-8.7 33.5-8.3 33.7-12.5 51.5-9 38.3-4.3 20-4 20.1-3.8 20.3-3.2 20-2.7 19.7-1.9 19-1 18.1v17l.5 14.8 1 14.6 1.3 14.6 1.5 14.5 5 43.3 3 29 1.2 14.6.8 14.7.4 14.7M706.7 789l-10 6.6-9.8 7-9.5 7.4-9.2 7.6-9.1 7.9-9 8-17.4 16.4-34.5 33.6M411.2 1856.6l2.5 33.5 1 16.8 1.4 33.6.6 16.8.6 33.7.3 33.7v33.6"/><path d="m531.6 1015-5.6 13.3-5.4 13.4-5.1 13.5-9.8 27.3-9.2 27.5-17.7 55-5.8 17.6-3 7.6-10 22.6-2.8 7.6-1.3 4-7.7 26.9-7.6 27-7.4 27.2-7.1 27.3-6.8 27.4-6.6 27.4-6.1 27.6-5.8 27.5-5.4 27.7-4.9 27.7-4.4 27.7-4 27.7-1.3 10.5-1 10.3-.8 10.4-1.2 20.5-.5 20.4v20.6l.8 31.2.3 4.3.5 4.4 1.9 8.6 5 17.4 2.2 8.6 1 4.3.7 4.3.6 6.4.2 6.4v6.5l-.7 19.6-.2 6.5.1 6.4.5 6.3.8 6.3 1.5 6.1 2 6M702.4 790l-9.1 6.2-8.8 6.4-8.7 6.7-8.4 7-8.2 7.2-16 14.8-39.2 38.3M406 1842.1l1.4 17.3 1.2 17.3 1 17.3 1.2 34.7.5 17.4.5 34.8v69.3"/><path d="m531.2 1013.7-12.8 30.4-12.2 30.6-11.5 31-11 31-10.4 31.3-10 31.4-9.5 31.6-9.1 31.7-8.8 31.8-8.4 31.9-8 32-8 31.9-9 37.3-8.8 37.7-4 19-3.9 19-3.4 19.2-3 19.1-2.5 19.2-1.8 19.3-1.3 19.2-.4 19.2.2 10 .6 10 1 9.8 1.2 9.8 3.2 19.3 7.3 38.4 1.7 9.8 1.6 9.8 1 8.8.3 7.5-.1 6.7-1.4 17-.2 5.7.3 6.1.9 6.8 1.7 7.7 2.7 9 4 10.3M698.1 791.1l-8.2 5.6-8 5.8-7.6 6.1-7.6 6.3-7.4 6.6-14.3 13.4-35.2 34.7"/><path d="m694 792.2-7.4 5-7 5.2-6.9 5.5-6.7 5.7-6.5 5.9-12.8 12.1-31.1 31.2M530.7 1012.4l-15.1 36.2-14.2 36.4-13.4 36.6-12.6 37-12 37-11.3 37.3-10.8 37.4L431 1308l-10 37.7-9.6 37.9-18.6 76M372.1 1618.4l1.5 28.6.8 11.4 1.2 11.4.8 5.6 2.1 11.3M388 1726.5l-.8 11-1.8 17-.8 11.5-.2 5.7.1 5.6.4 5.6.8 5.5 1.2 5.3.9 3 2.2 5.8 8 17 2.2 5.9.8 3 .7 3.5 1.1 7.4.8 7.6.5 7.7 1.4 33.8.7 30 .1 30.1-.2 75.2.3 30"/><path d="m689.7 793.3-6.4 4.3-6.1 4.7-6 4.8-5.9 5.1L654 823l-32.7 33M708 788.6l-2.8-.2-2.1.3-2 .8-2.5 1.5M530 1010l-15.3 32.9-14.1 33.5-13.2 34-12.2 34.5-11.4 35-10.7 35-10 35.4-9.6 35.5-9 35.5-8.9 35.5-17 70.5M372 1623.7l2.8 46.9M385.5 1716l-.8 12.7-1.7 19.5-.7 13v6.5l.2 6.5.5 6.4 1 6.3 1.3 6.2.7 2.3 1.8 4.6 6.5 13.5 1.6 4.6.5 2.4 1.4 8.4 1 8.6.8 8.7.7 13.2 1.1 28.6.6 31.6.1 31.7-.2 79.3.3 31.7"/><path d="m708.7 788.4-5.8-.2-3.1.3-1.5.3-1.4.4-2.8 1.2-5 3M685.5 794.4l-5.4 3.7-5.3 4-5.2 4.3-5 4.5-9.6 9.4-18.7 19.5-9.4 9.4M529 1006.7l-12.5 26.9-12 28.2-11.6 29.3-11 30.3-10.6 31-10 31.3-9.6 31.5-9.2 31.5-8.6 31.2-8 30.6-7.7 29.9M372 1629l2.2 38.7M383 1705.6l-.4 6.9-2.5 29.3-.4 7.5-.3 7.5v7.4l.4 7.4.7 7.2 1.3 7 5.7 19.6 1.7 6.4 1.4 6.4 2.4 12.9 1.8 13 1.2 13.2.9 13.7.7 16.6.5 16.7.3 33.4-.6 100.5.2 33.4"/><path d="m709.3 788.2-7.8.2-7.5 1.5-7.2 2.8-6.8 3.8-6.6 4.6-6.3 5.4-6.1 5.8-6 6.1-17 18.5-5.5 5.5M832.7 771.2l-1.1.4M527.9 1003.3l-7.8 17.6-7.4 17.8-7 17.9-6.8 18-6.5 18.2-6.4 18.3-24.5 73.2-12.5 36.5M371.8 1634.3l1.8 30.5M380.5 1695.2l-.5 8.6-2.2 30.2-.3 12.9.4 10 .8 10 1.1 10.1 1.5 10.2 7 41 1.5 10.3 1.4 10.3 1 10.5.8 10.4.5 15.3.5 30.7v30.8l-.7 76.8.2 30.7M743.6 737.4l.8 3.8.6 1.6.6 1.4 1.6 2.2 2.1 2 2.7 2 3.4 2.2 1 .4.4-.1v-.8l-.4-1.2-1.6-3.3-6-10.9M830 769l-5.3 2M788.6 773.8l-1.2-7.1-.8-3.4-2-6.4-1.2-3.1-2.7-6.2-6.5-12.5"/><path d="M713.2 742.8v1.5l-.6 2.8-3 13.7-4 15.6-3 11.1-.7.4-2.1.2-2.7-.4-5.9-1.3-2.4-.2-.9.2-2.6 1.3-3.3 2.4-3.9 3.4-8.9 8.8-9.5 10-18.2 20M634.1 840.4l-.8 1M526.7 999.6l-5.6 12.6-5.4 12.8-5.1 12.8-9.7 25.9-4.6 13-8.9 26.3-17 52.7M470.4 1155.7l-.1.3M371.7 1639.5l1.3 22.4M378 1684.9l-.5 8.8-2.3 27.2-.3 9 .3 8.7.8 10.9 2.3 21.6 5.6 43.1 2.6 21.6 1 10.9 1 10.9.5 11 .6 16 .4 16.3.2 32.5-1 97.6.2 32.4M470.3 1156v-.3M827.4 766.8l-9.5 3.6M798.5 771.2l-1.9-13.4-4.2-26.4-1.6-13.2"/><path d="m709.8 729.4-1 8.7-2.2 8.5-3 8.1-3.7 8-4.5 7.5-5 7.4-5.5 7.2-5.8 7-6.1 6.7-6.2 6.6-12.5 12.7M630.8 844.2l-2.5 3.4M525 994.2l-5.8 12.5-5.6 12.8-5.4 13.2-5.2 13.4-5 13.7-4.7 13.8-4.5 13.8-4.3 14-4 13.9-3.8 13.9-3.4 13.7M371.6 1644.7l.9 14.3M375.6 1674.6l-.7 28v18.5l.1 9.1.7 18.4.5 9.2 1.4 18.5.9 9.4M379 1789.4l-.5 6.3-.1 6.4.2 6.4.6 6.5.7 6.6 3.8 26.2.8 6.5.5 6.4.3 6.3.2 16v31.7l-.6 95.3.2 47.7"/><path d="m377.7 1780.6-.6 7-.3 7.1v7.1l.4 7 1.2 14.1 2.2 21.1.6 7 .4 7.1.2 7.1v46.8l-1.1 93.5v46.7M373.3 1663.1l-1.2 29.7-.3 22.1.2 14.8.4 7.4 1.1 14.9M371.5 1649.9l.4 6.2M528.9 971.8l-4.7 6.5-5 7.7-2.3 4.2-4.5 8.8-2 4.3-3.4 8.6-1.3 4-.9 3.7-.2 1.4v1.6l.2 3 1.4 8 .2 3-.2 1.5-1.5 8.4-2.3 9.1-2.7 9.6-3.2 10-18.2 52.6-3.3 10.2-2.8 10-2.4 9.3M627.4 847.9l-4.2 5.7M705.8 732.5l.2 4 1.2 7.5.1 2.8-.1 1.2-.3 1-1.7 4.5-2.2 4.6-2.6 4.8-3 4.8-3.3 4.7-3.5 4.8-3.7 4.6-7.4 8.8-3.7 4-6.8 7M808.4 769.5l-.7-4.6-.9-4.3-1-4.2-6.4-20-1.2-4-1-4.2-.8-4.3-.6-4.5M824.7 764.5l-13.5 5.2M371.5 1652.4l-2.5 27.5-.7 11.2-.3 11.1v5.6l.3 5.4.4 5.4"/><path d="m376.4 1771.8-.7 7.8-.4 7.7-.1 7.7.1 7.6.9 15.1 1.5 22.7.6 15.3v7.7l-1.1 68.9-.6 51.6v51.7l.2 34.4M532.4 958.2l-10.3 13.1-7 9.8-3.5 5-3.2 5.2-2.9 5.3-2.6 5.3-2.2 5.3-1.8 5.3-1.2 5.2-.3 2.6v2.6l.5 5.4 2.3 13.5.2 2.7v2.6l-.2 2.6-1.6 8.8-2 8.8-2.3 9-2.7 9-14.7 45.9-2.7 9-2.5 9-2.1 9M624.1 851.6l-6.4 8.3-13.2 16.1M702.6 752.3l.6 1.4M822.1 762.4h-2.2l-2.3-1.3-2.4-2.4-2.3-3.4-2.2-4.1-2.1-4.7-2-4.9-1.8-5-2.7-9.1-.8-3.8-.5-3"/><path d="m812.8 745.5-2.3-3.8-1-1.9-1.4-3.7-1.3-5.6-1-8.6M690.3 755.8l4.5 10.7M631.9 843l-5.3 5.2-5.2 5.5-4.9 5.6L607 871l-18.5 23.7-9.6 11.4-5 5.6M544.6 937l-3.5 3-4.4 4.8-5 6.3-5.6 7.3-5.9 8.1-5.9 8.6-11 16.9-4.7 7.8-3.9 6.8-2.7 5.6-1.5 4-.6 3.3-.3 3.5v3.7l.4 3.8 1.2 7.8 2.8 15.2.7 7-.2 5.7-1 7-1.7 8-2.2 8.7-2.5 9.2-14 45.8-2.2 7.5-1.6 6.5M371.6 1645.5l-2 27.4-2 38.5M375.2 1763l-1 8.5-.5 8.3-.4 8.3-.1 8.1.2 16.2 1.4 40.8.2 25.5-.3 34-2 102.3-.2 34.1.1 17M680.1 764.4l6.3 15"/><path d="m643.6 829.8-4.5 2.6-5.4 4.5-6.1 6-6.7 7.1-7 8-7.2 8.6-26.6 32.9-5.2 6.2-4.3 4.8M554 926.6l-6.3 4.5-4.2 3.5-3.9 4-2.3 3.2M528.6 951.7l-2.9 4.3-3.7 4.9-19.1 23-9.4 11.8-3.9 5.5-3.1 5-2.2 4.6-1 3.8-.6 9.3.2 11 .7 7.5 1 6.9.7 3 .8 2.7 1.5 2.6 3.5 4.7 1 1.9.4.9v.8l-.2 6-1 6.8-1.6 7.6-2 8.2-4.8 17.4-10.2 34-2 7.3-1.7 6.5M371.7 1638.6l-2.1 29.7-2.1 41.6M373.9 1754.4l-4.8 36-1 10.3-.4 10.3v5l.5 7.4 2.5 21.9.6 7.3.2 3.6-2.5 116.4-.5 48.3-.2 32.3"/><path d="m647.9 825-5.1 2.9-6 4.7-7 6.3-7.3 7.5-7.9 8.4-8 9-29.4 34.5-10.5 11.9M556.4 921.1l-5.9 4.7-5 4.8-4.3 5.4-4.3 6.3M518.3 963.6l-3 4.2-3.5 4-3.9 3.9-16.9 14.8-4 4-3.5 4.1-3.1 4.5-2.5 4.8-1.8 5.2-1 5.3-.4 5.2.2 5 .7 5.1 1.1 5 1.5 4.8 1.8 4.8 2 4.8 8.5 18.2v2.4l-1 5-1.6 7.2-4.6 18.8-15.8 59.8M371.9 1631.7l-1 12.8-1.4 19.2-1 19.1-1.2 25.6M372.6 1745.8l-1 10-1.8 19-.5 9.2-.8 18.1-.4 18-.1 54-.2 15.8-.7 31.8-2.1 79.7-.6 31.8v16"/><path d="m513.1 969.5-6.4 4.4-6.3 4.8-6.1 5.1-5.8 5.5-5.3 5.9-4.7 6.2-4 6.5-3.1 7-2.2 7.2-1 7.6.1 8 1.5 8.2 1 2.7 1.3 2.6 1.6 2.6 9.9 12.5 1.7 2.5 1.4 2.6 1 2.6.7 2.7v5.1l-.8 6.6-1.5 7.8-2.1 8.7-5.4 19-11 37-2 7.4-1.4 6.1M652 820.3l-6.7 3.8-8.6 6.7-10 9-11.2 10.8-11.8 12.2-12 13-12 13.3-11.3 13.1-10.4 12.4-9 11.3-7.4 9.5M372 1625l-1.1 13.6-1.4 20.5-1.2 20.5-1.2 27.3M371.4 1737.3l-2.7 24.6-2.3 24.7-1.8 24.7-1.4 24.8-1 24.8-.8 24.9-.8 49.7-.2 99.4"/><path d="m370.2 1728.8-2.6 22.2-2.2 22.2-2 22.2-1.6 22.3-1.3 22.3-1.2 22.3-.9 22.3-.7 22.3-.8 44.7-.3 44.7M372 1620l-1.5 14.2-1.5 21.4-.7 14.3-1.4 35.6M515.9 966.4l-11.6 8-6.7 4.9-6.9 5.5-6.8 6-6.5 6.6-5.9 6.8-5 7-3.7 7.3-2.4 7.4-.6 7.4 1.5 7.4 1.4 3.5 2 3.4 2.2 3.5 10.6 14 2.5 3.4 2.2 3.4 1.9 3.5 1.4 3.4.8 3.3v4.6l-.7 6.3-1.5 7.5-2 8.6-5.2 19-10.6 36.7-2 7.2-1.2 5.7M546.4 927.3l-10.3 15.9M656.3 815.6l-7 3.7-8 5.7-8.7 7.4-9.4 8.8-9.7 9.8-9.9 10.4-9.8 10.7-34.2 38.2-6.3 6.6"/><path d="m518.6 963.2-19 12.4-5.7 4-5.5 4.2-5.2 4.3-4.8 4.7-4.6 5-4.2 5.5-3.8 6-3.5 6.8-3.6 8.5-2.9 6.3-1.3 4-.4 2.6.1 1 1 3.6 2 4 2.6 4.5 3.2 4.7 16.9 23.2 2.3 3.6 1.5 2.8.6 2-.3 6.2-1 7-1.4 7.6-2 8.1-4.6 17.2-9.6 33.7-2 7.5-1.4 6.8M645.2 819.8l-37.1 39.8-22.6 23.6-30.2 31.4M680 767.6l-9 21.9-2.1 4.2-2.2 4-2.5 3.8-2.7 3.6-3.1 3.2-3.5 2.9-4 2.4M372.5 1613.9l-1.6 15-1.8 22.5-1.1 22.5-1.3 30.1M369 1720.3l-4.6 39.5-2 19.7-3.6 39.6-1.5 19.8-1.3 19.9-1.1 19.8-1 19.9-.6 19.8-.4 19.9-.2 19.8"/><path d="m677.2 763.8-3.4 7.3-6.6 15.5-3.5 7.7-3.8 7.3-2 3.4-2.2 3.2M637 828.4l-33 35.2-46.7 48.6M518.3 962l-19.8 12.6-6 3.9-5.8 4-5.4 4-5 4.5-4.8 4.9-4.5 5.4-4.1 6-3.8 6.9-3.4 7.7-2 4.8-1.3 3.8-1.2 3.9-.7 3.8-.2 1.9v1.7l.3 1.6 1.3 3.5 2 4.1 3 4.6 6.9 10 7.5 9.7 9 11.2 2.2 3.2v4l-.7 5.9-1.4 7.4-2 8.5-4.7 19.3-9.9 37.1-2.8 12.3M376 1585.2l-1.8 9.6-1.4 9.7-1.2 9.8-1.9 19.6-.6 9.8-1 19.7-1.6 39.2M367.7 1712l-3.6 31-1.6 15.5-2.9 31-3.7 46.6-2.1 31-2 31.3M369.3 1634.7l-1.1 11-.7 11-1.2 44.5M366.6 1703l-3.7 30.5-3.4 30.4-3 30.4-2.8 30.5"/><path d="m509.8 966.3-7 4.4-19.9 12.1-6 4-5.6 4.4-5 4.7-4.7 5.3-4 6-3.4 6.8-2.7 7.7-4.3 19.5-.5 4.6.3 2.4 1.7 3.6 2.4 4 3 4.5 7.4 9.2 16.7 19.3 1.7 2.3.8 1.3v3l-.7 5-3 14.8-4.4 18.4-8.8 35.3-2.4 10.5M628.7 837 600 867.4 559.3 910M672.6 764.3l-3.5 8-9.3 25.3-1.8 4-1.9 4-2.1 3.7-2.3 3.5"/><path d="m501.4 970.5-19.4 12-6 3.9-5.4 3.9-5.1 4.2-4.7 4.5-4 5.1-3.6 5.7-3 6.5-2.3 7.5-2.2 11.6-1.5 7.2-.8 5.5-.1 3.3.2 1.5 1 3 2.2 3.7 3 4 3.7 4.1 4.1 4.4 16.1 16 2.8 3 1.8 2.5.7 1.6-.2 4.8-.5 5-.9 5.2-1 5.2-2.9 10.6-6 21-2.2 9.8M620.4 845.4 596 871.5l-34.7 36M655.5 804.1l-1 2.4-1.7 3.4-2 3.1-3 4.2"/><path d="m493.6 974.2-7.1 3.7-6.6 3.8-6.1 4-5.6 4.2-5 4.5-4.5 4.8-4 5.2-3.4 5.7-3 6.1-2.4 6.8-2 7.3-3 17.2-.4 5 .3 2.7.5 1 4.4 6.9 5 6.8 8.7 10 9 9.4 8.7 8.5-.9 6.3-1.3 6.4-4.8 19-1.4 6.1"/><path d="m487 977.2-6.8 3.6-6.3 3.8-6 4.2-5.4 4.4-5 4.8-4.4 5.2-3.9 5.6-3.2 6-2.6 6.5-1.9 6.9-1.2 7.4-.4 8.7-.6 8.5v2.8l.3 2.2.4.8 5.4 7.3 8.6 10.7 9 10.5 12.4 13.5v1.3l-.4 2.6-3 10.8M516.8 962.1l-6.7 4"/><path d="m480.3 980.2-6.7 3.8-6.6 4.6-6.3 5.3-5.9 5.9-5.3 6.5-4.6 7-3.8 7.3-2.8 7.7-1.8 8-.6 8 .7 8.3 2.1 8.3 1.3 2.8 1.6 2.9 2 2.9 4.6 5.8L466 1094"/><path d="m473.7 983.2-9.2 4.4-8.1 6.3-6.8 7.9-5.5 9-4 10-2.5 10.5-1 10.7.8 10.5 2.5 10.1 4.3 9.3 6.3 8.2M452 995l1.8-4.2"/><path d="m453.8 990.8-8.8 21.3-3.7 10.1-1.5 5-1.3 5.3-1 5.3-.8 5.5-.5 5.8-.1 6.1M438.3 1066.5l10.1 11.4 3.6 3.7 3.7 3.3 4 3M469.8 983.7 462 985l-3 .8-1.3.6-1.3.8-1 1-1 1.2-.7 1.4M475.4 982.4l-5.6 1.3M460.4 983.3h-.8M457 984.3l-1.9 1.1-1.5 1.3-1.3 1.4-1.2 1.9M450.4 991.9l.4-1.5M450.4 991.9l-1.2 6-.8 3-2 6-2.3 5.7-6.3 14.2"/><path d="m442.4 1071.7 7.2 7.7 3 3 4.7 4 3.5 2.5M450.4 991.9l.4-1.5"/><path d="m446.6 1076.8 4.8 4.9 3.6 3.3 4 3 2.8 2M450.7 1081.9l1.9 1.8 2.9 2.4 7.4 5M451 1888.4l4.3.3M437.9 1872.5l6.2 8.8 2.6 3.5 2.4 2.6 1 .7.8.3M762.3 1421.2l-1.4-5.7-1-5.7-1.4-11.6M758.5 1398.2l-2.3-24.5M756.2 1373.7l-2.3-24.3M753.9 1349.4l-.2-2.8v-2.8l.4-2.7 1-5.4 1.5-5.3 4.6-13.2M786.2 1491.6l-11.3-26.5M774.9 1465.1l-1.5-3.7-1.9-5.6-3.7-13.3M773.1 1281.3l7.2-21 5.4-15M929.3 1341.4l-.4-8.3-.9-7.8-1.5-7.7-2.1-8M929.1 1374.2l.4-13.6-.2-19.2M749.4 783.1l-2.2-.9-1.1-.1M746 782l-3.6.5M735 783.2l-3.7.4M731.3 783.6l-3.6.4M742.4 782.5l-3.7.3M738.7 782.8l-3.7.4M727.7 784l-3.7.4M757 783.4l-2.5.8M760 782.5l-3 .9M805.2 769.4l-3.4.9M827.9 771.3l-11.5-1.8-4-.5-3.8-.1-3.4.5M798.4 771.2l-3.4.9M801.8 770.3l-3.4.9M778.5 776.5l-3.1 1M781.8 775.6l-3.3 1M788.4 773.9l-3.3.9M791.7 773l-3.3.9M795 772.1l-3.3.9M785 774.8l-3.2.8M669 801.6l-5 5.3-9.7 10.9M641.5 832.2l-5.9 6.5M654.3 817.8l-12.8 14.4M822.1 762.4l-2-2.2-1.7-2.7-1.6-3-4-9M812.8 745.5l-1.1-3.2-2.8-12.6-1.2-4.5-.6-1.7-.7-1.1-.6-.5M772.2 778.5l-3 1M775.4 777.5l-3.2 1M763 781.5l-3 1M769.1 779.5l-3 1M766 780.5l-3 1M740.9 721.3l2 10.7.7 5.4M740.9 721.3l-14 1.5-5.2.7-4.5 1.1-1.9.8-1.5 1"/><path d="m750 720.2-4.6.4-4.5.7M932.9 996.9v-6.6M798.5 1209.1v1M798.5 1200.6v8.5M798.6 1192.2v8.4M801.8 871.2l.6 6.5.1 3.3-.1 6.4-.8 9.5-1.5 13M798.9 1241.4l2.5 28M798.2 1232.6l.1 3 .6 5.8M894 1892.4l.6-14.5 2-29.1.2-9.7-.3-14.2-.5-9.2-3-36.8-1-18.3-.1-9.2.1-9.2.6-9.2 1-9.3M893.6 1723.7l13.6-104.9M788 1347.5l.2 19.3.7 13.7M795.3 1319.9l-3.6 9-2.2 6.7-1 4.6-.3 2.3-.3 5M802.4 1294.4l-.3 4.5-.3 2.2-1 4.2-2 6.2-3.5 8.4M924.4 1309.6l-1-4-.8-5.7-.1-5.6.4-8M923.5 1274.7l1.7-29.4M799.4 1639.6l.2 51.4M799.6 1691l.4 21.8-.2 4.3-.5 4.2-.9 4-1.3 4-1.8 4-2.5 4.3-3.3 4.6-4 5M792.5 1428.4l1.3 16.2.5 8.1M794.3 1452.7l1.4 32M797 1517.1l1 22.8.3 11.4M795.7 1484.7l1.3 32.4M921.8 1486.6l2.3-25.9 1.3-18.5M916.9 1538.8l4.9-52.2M907.2 1618.8l6.8-53.3 2.9-26.7M788.9 1380.5l1.8 23.8M790.7 1404.3l1.8 24.1M795.4 1017.7l.2 7M927 801.5l-2.5-1.5M929.4 803.6l-.2-.5-.6-.6-1.6-1M914.6 793.9l-6.4-3.6-7-3.5-7.1-3-7-2.5M917 795.4l-2.4-1.5M919.5 797l-2.5-1.6M922 798.4l-2.5-1.5M924.5 800l-2.5-1.6M761.2 1317.2l12-35.9M416.7 1488.5v.3M415.9 1481.8l.4 3.3M416.3 1485.1l.4 3.4M415 1474.5l.1.6M415.1 1475.1l.4 3.3M415.5 1478.4l.4 3.4M767.8 1442.5l-5.5-21.3M471 1992.7l.9 9.9.7 10 1.6 39.7M727 1902.4l-7.6-12.4M468.3 1970.8l1.3 11M469.6 1981.7l1.3 11M465.8 1949.2l1.2 10.8M467 1960l1.3 10.8M462 1917.5l1.2 10.5M443 1877l8.3 7.3 3.3 3.2 1.5 1.8 1.3 1.7 1 1.8.7 2 .4 1.9M459.5 1896.7l1.3 10.3M460.8 1907l1.2 10.5M463.2 1928l1.3 10.6M464.5 1938.6l1.3 10.6M416.6 1488.8l-1.8 4M411.2 1501l-1.2 2.8M413 1497l-1.8 4M414.8 1492.9l-1.8 4M798.9 1595.2l.5 44.4M798.3 1551.3l.6 43.9M426 1861l3 2.2 3 2.6 11 11.1M425.4 1860.6l5.4 5.2M430.8 1865.8l11.6 11M442.4 1876.8l11.3 10.6M414.7 1830.8l1.7 2.8 1.4 3.3 1.2 3.6 3 10.3M422 1850.8l3.4 9.8M535.2 1030.2l1.4 6M533.2 1021.5l2 8.7M531 1013.3l2.2 8.2M528.7 1005.8l2.3 7.5M526.3 998.2l2.4 7.6M524 990.8l2.3 7.4M866.9 775.2l-1.3-.4M869.8 776l-2.9-.8M875.7 777.8l-3-.8M878.6 778.7l-3-.9M872.8 777l-3-1M884.3 780.4l-2.8-.8M887.2 781.3l-2.9-.9M881.5 779.6l-3-.9M887.6 785.5l-3.4-1.7M903.6 797.5l-11.4-8.8M892.2 788.7l-2.6-2-2-1.2M867.5 775.7l-1.9-.9M870.8 777.3l-3.3-1.6M874.1 779l-3.3-1.7M880.8 782.2l-3.3-1.7M915.8 807l-.8-.7M877.5 780.5 874 779M915 806.3l-11.4-8.8M884.2 783.8l-3.4-1.6M800.2 859.3l1.6 11.9M798.5 847.3l1.7 12M798.4 846.4l.1 1M939 844.4l-18-29.2M915.8 807l-.6-1M921 815.2l-5.2-8.3M912.6 802l-.6-1M913.9 804l-.7-1M913.2 803l-.6-1M915.2 806l-.7-1M914.5 805l-.6-1M772.8 790.7l-3-1M769.7 789.7l-3.4-1.1M759.5 786.4l-3.4-1.1M752.8 784.2l-3.4-1M766.3 788.6l-3.4-1.1M762.9 787.5l-3.4-1.1M756.1 785.3l-3.3-1M702.6 752.3l-12.3 3.5M669 801.6l4.6-5 4.2-5.3 4-5.3 3.8-5.6 11.5-17.4 3.6-5.8 2.2-4.2v-.6l-.3-.1M680.1 764.4l-.7 25.6M690.3 755.8l-10 2.9M680.3 758.7l-.2 5.7M748.8 736.7l-5.2.7M743.6 737.4l-30.4 5.4M774.2 735l-25.4 1.7M790.5 734l-16.3 1M635.6 838.8l-1.5 1.6M634.1 840.4l-3.3 3.8M630.8 844.2l-3.4 3.7M627.4 847.9l-3.3 3.7M685.7 739.2l-2.2.8-1.6 1-1.2 1-.9 1.4-.5 1.5-.2 1.6v1.8l1.2 10.4M685.7 739.2l1.7 7 2.9 9.6M705.8 732.5l-1.7 1.1-1.6.9-3.7 1.2"/><path d="m702.6 752.3-1.4-5.5-2.4-11.1M698.8 735.7l-13.1 3.5M774.7 718.6l-24.7 1.6M774.7 718.6l-.1 9.6-.4 6.9M748.8 736.7l1-11 .2-5.5M790.8 718.2l-2.6-.4h-5.4l-8.1.8M713.2 742.8l-.2-5.5.8-11M709.8 729.4l-4 3M713.8 726.3l-4 3.1M795.8 719.4l-5-1.2M800.8 720.7l-5-1.3M805.8 721.9l-5-1.2M719.7 785.5l-4.4 1.2M715.3 786.7l-4.3 1M724 784.4l-4.3 1.1M706.7 789l-4.3 1M702.4 790l-4.3 1.1M694 792.2l-4.3 1.1M685.5 794.4l-2.8.7M689.7 793.3l-4.2 1.1M698.1 791.1l-4.2 1.1M711 787.8l-4.3 1.1M941 851.3l-2-7M946.4 870.2l-2.8-9.4M943.6 860.8l-2.7-9.5M934.4 958.7l2.3-12.3 6.7-33 1.5-8.5 1.3-8.4.9-7.8.3-7.2-.2-6.2-.8-5M938.8 836.1l-.1-3.8-.5-2.7M938.2 829.6 936 823M936 823l-2.2-6.5M933.8 816.5l-2.2-6.5M931.6 810l-2.2-6.4M562 912l-1.9 2-2 2.9-1.3 3.2-1.6 4.8M527.4 1000.2l1 2.2M525.7 995.5l.8 2.4M524 990.9l.8 2.3M524.8 993.2l.9 2.3M526.5 997.9l1 2.3M590.4 892.9l-15.7 19M592.3 890.6l-1.9 2.3M593.6 907.5l-3.5 1.7M590 909.2l-3.2 1M586.8 910.3l-3.4 1.1M583.4 911.4l-1.7.6M548.4 932.8l-7 7.8M550.9 930.4l-2.5 2.4M564.8 910.8l-1.8.5-1 .7M568 909.8l-3.2 1M537.2 1023.6l2.4 5.9M532.7 1013l4.5 10.6M528.3 1002.4l4.4 10.6M534.7 951.6l-1.5 4.2-1.7 6M526.5 981l-2.5 9.6M529 971.4l-2.5 9.6M537.6 945l-.7 1.7M536.9 946.7l-2.2 5M531.5 961.8l-2.5 9.6M568 909.8l-1.5.4M600.7 903.7l-3.5 1.9M597.2 905.6l-3.6 2M607.9 899.9l.2-.1M607.8 900l-3.6 1.8M604.2 901.8l-3.5 1.9M555 924.6l-1.8 3-1.6 2M604 876.6l-5.8 7M598.2 883.5l-5.9 7M621.3 856l-5.7 6.8M635.6 838.8l-3 3.6M609.8 869.6l-5.8 7M615.6 862.8l-5.8 6.8M627 849.2l-5.7 6.7M632.6 842.4l-5.7 6.8M582 912H580M579.9 912l-4.3.2M576.2 912.4l-5.4-2-2.7-.6M865.6 774.8l-11.3-1M854.3 773.7l-26.4-2.4M939 844.4v-1.7M939 842.7l-.2-6.6M406.6 1820.7l8 10.1M547.4 934.3l-4.2 4.6M539 943.5l-1.4 1.5M543.2 938.9l-4.2 4.6M551.6 929.6l-4.2 4.7M766.7 1938.1l-.5 17.6-.5 8.9-1.3 17.8-.8 9-2.3 17.7-1.4 8.8-1.6 8.7-1.8 8.7-2 8.5M767.5 1900.2l-.8 38M797 1967.5l1 .5.6 1.1.4 1.6.2 4.2-.5 5-1.5 10.4-.2 3.9-.7 18.5-.7 9.8-.6 4.7-.8 4.5-1.2 4.2-1.5 3.7-1.9 3.3M789.6 2042.9l-3.8 5.2M886 1991.2l1.4-12.3 3.4-25 1.5-12.4 1-12.4.5-12.4M703.2 1949.7l5.4-3.2M708.6 1946.5l2-1.3 1.3-1.2 1-1.4 1-2M719.8 1915.8l.8-6.3v-3.1l-.1-6.3-.4-3.1-1-6.3-1.2-6.1-1.5-6.1M714.8 1938.3l1.2-2.5M706.1 1947.6l3.5-2.7 2.2-2 1.9-2.6 1-2M703.2 1949.7l3-2M716 1935.8l3.8-20M720.7 1858l3.3-7.4M716.4 1878.5l-.7-3.8v-1.8l.4-3.3.4-1.6 1.1-3.1 3.1-7M733.3 1848.3l-11.2 6.6M688.4 1946l.2 1 .6.9 3.4 3.2M734.6 1848l2.8 3.2M737.4 1851.2l6.6 7.5 3 4M754.4 2043.8l-7 27.7M758.1 1878.4l4.2 6.6 3 5.7 1.3 3.9.5 1.9.3 1.9v1.8M787.1 1746.3l-10.5 6-5 3.1-10 6.7-9.6 7-24 18.1M699.6 1951.3l3.6-1.6M692.6 1951.1l1.3 1.1.5.4 1 .2 1.5-.3 2.7-1.2M747 1862.6l11.1 15.8M835.3 1964.6z"/><path d="m785.8 2048.1 2-8 1.8-8 1.5-8.2 1.3-8.2 2-16.7 3-33.5 1.7-16.4M881.7 2026l.9-2.6.7-2.8 1-5.7.6-6 1-17.7M876 2036.8l1.5-1.5 1.6-2.6 2.6-6.7M820.4 2052.8l2.4-8 1.8-8.2 1.3-8.4 3.2-25M829.1 2003.1l7.4-49M848.5 2051.4l2.1-5.2 1.8-5.5 1.5-5.7 1.2-5.8 1.9-12 2.6-24 1.4-11.4M861 1981.8l4-27.6M866.5 2045.1l4.8-4.1M871.3 2041l4.7-4.2M861.7 2049.2l4.8-4M764 1717.4l11.5 35M830 769l-2.6-2.2M824.7 764.5l-2.6-2.1M832.7 771.2l-2.6-2.2M827.4 766.8l-2.7-2.3M927.3 1408l1.8-33.8M925.4 1442.2l1.9-34.2M541.4 940.6l-3.8 4.4M893.8 1916.7l.2-24.3M714 1940.5l2-4.7M431.4 1866.5l9.1 12.2 3.9 4.6 3.5 3.5 1.5 1 1.2.4M369.3 1634.7l-1.1 11-.7 11-1.2 44.1M376.1 1583.3l-2 8.2-1.4 8.5-1 8.8-1.5 17.5-1 8.4M468.7 1135.6l-3.5 21.2M472 1115.3l-3.3 20.3M465.9 1094l3.4 3.6 1.2 1.5 1.7 3 .5 1.4.3 1.5v3.4l-1 7M366.3 1700.8l-4 31-3.6 30.9-2.8 31-2.2 31.1M651 813.6l-5.8 6.2M620.4 845.4l-30 30.6-10 10.4-9.7 10.5-9.4 10.7M628.7 837l-8.3 8.4M637 828.4l-8.3 8.5M645.2 819.8l-8.3 8.6M411 1367.2l-7.6 35-4.9 25.1M449 1220.8l-7.6 24-3.5 12-6.6 24.4-3.2 12.3-6 24.6-5.6 24.6-5.4 24.5M378.5 1785.7l.7 5M368.7 1718.6l4.8 33.4M373.5 1752l5 33.7M366.9 1705.5l.2 1.4M366.5 1702.6l.2 1.4M366.3 1701.2l.2 1.4M366.7 1704l.2 1.5M367.7 1711.4l1 7.2M367.5 1709.9l.2 1.5M367 1707l.3 1.4M367.3 1708.4l.2 1.5M470.3 1156l-21.3 64.8M470.4 1155.8l-.1.2"/><path d="m392.8 1459.5-9.2 52.4-4.2 26.7-1.9 13.4-1.6 13.4-1.5 13.4-1 13.3-.9 13.2-.4 13.1M372.1 1618.4l-.1 5.3M374.8 1670.6l3.7 16M373.6 1664.8l.6 2.9M372 1629l-.2 5.3M373 1661.9l.6 2.8M371.8 1634.3v5.2M371.5 1649.9v3.6l.4 2.6M371.9 1656.1l.6 2.9M371.6 1644.7v5.2M372.5 1659l.5 2.9M371.7 1639.5v5.2M372 1623.7v5.3M374.2 1667.7l.6 2.9M353.7 1824.8l-.5 12.3-.7 18.4-.7 42.9M398.5 1427.3l-5.7 32.2M351.8 1898.4l-.3 24.9v9.9l.5 14.9.7 10M360.4 2035l3.1 31.2M356.6 1996.3l3.8 38.6M352.7 1958l3.9 38.3M458 1086l7.9 8M392 1798l1.5 4.5M393.5 1802.5l10.1 32M403.6 1834.5l3.7 11.7 1.6 4.6 2 4.3 1.3 2.1 2.8 4M429.4 1878.7l2.6 3.1M422.2 1870l7.2 8.7M415 1861.2l7.2 8.8M413.4 1856.3l33.5 28.2M437.8 1026.8l-1.5 4.7-.5 2.3-.5 4.6v7l.8 9.8M436.1 1055.2l.2 5 .2 2 .8 2.7 1 1.6M655.5 804.1l-1 2.7-2.2 3.7-2.4 3.5-3.5 4.6M669.7 764.7 655.5 804M669.7 764.7l2.9-.4M672.6 764.3l4.6-.5M677.2 763.8l3-.3M679.7 751.5l-.7-4v-1l.3-.4M674.8 746.8l-1.8.7-1.4.9-1 1-.7 1.3-.4 1.4-.3 3.3.5 9.3"/><path d="m674.8 746.8-1.2.6-1 1-.5 1.1-.5 1.5-.2 1.5v1.8l.2 3.6 1 6.4M679.3 745.8l-1.6.7-1.1 1-.8 1.1-.5 1.4-.2 1.6.3 3.4 1.8 8.8M501.4 970.5l-7.8 3.7M509.8 966.3l-8.4 4.2M518.3 962l-8.5 4.3M460.4 983.3h-.8M475.4 982.4l-3.9.7-3.6.3-3.6.1-3.9-.2M458.8 983.5l-2.3 1.5-2 1.6-3.7 3.8M450.7 1081.9l1.9 2 3 2.6 8 5.2M446.6 1076.8l4.1 5M442.4 1071.7l4.2 5.1M438.3 1066.5l4.1 5.2M450 991.3l-1.1 6.2-.8 3-1.9 6-3.4 8.7-5 11.6M546.4 927.3l-10.5 16.2M553.3 917l-2.5 3.2-4.4 7.1"/><path d="m457 984.3-1.7.8-2 1.4-1.4 1.8-1.9 3M458.8 983.5l-1.8.8M450.8 990.4l-.8 1M493.6 974.2l-6.6 3M480.3 980.2l-4.3 2.2-2.3.8M487 977.2l-6.7 3M555.3 914.6l-2 2.3M561.3 907.6l-2 2.3M559.3 909.9l-2 2.3M557.3 912.2l-2 2.4M473.7 983.2l-4 .5M516.8 962.1l-8.3 4.9M518.3 963.6l-6.3 7.1M528.6 951.7l-10.3 11.9M537.7 941.4l-9 10.3M378.5 1686.7l11.8 49.3M656.8 807l-5.9 6.6M461.4 1179.4l-1.2 7M465.2 1156.8l-3.8 22.6M423.8 1857.7l1 1.1M430.5 1865.4l.9 1.1M520.6 961l-2.3 1M521.4 960l-4.7 2.9M522 959.3l-8.6 5.2M522.4 958.8l-5.6 3.3M543.2 440.2l-14.5 4.7M551.9 929.4l-1 1M588.7 612.8l.5 1.6-1-.5M578.5 606.7l1.7 1.2M587.5 594.3l-3.8-2.2M618.1 548.3l-1.3 6M621.7 532l-1-.3M641.2 674.1l1.1 4.2M645.2 669.3l.6-3M650.8 644.7l-2.1-.9M650.7 628l3 1.3M667.5 587.3l.8-.6M679.6 785.1l-4.8 10.5M679.2 745.6l-4.4 1.2M688.2 1940.9l.2 5.1M690.6 385l-.5-7.8M704.8 1821.1l6.2-9.2M704.8 1821.1l-19.8-31.4M707.2 387.3l-41-5.4M701.2 509.1l-4.4 1M744.1 2081l4.2-46.4M744.1 2081l4.2-46.4M762 1761l-15.4-47M761.2 385.5l3.5-8.7M762 1761l-15.4-47M758 719.7l9.4-9M767.5 1900.6l-3.6-11.8M775.5 1752.4l-11.5-35M777.7 1119.9l4.5-10.6M789.4 407.4l.1-.6M789.5 406.8l-.7.4M789.5 406.8l-1 .3M788.4 1030l2.7-8.1M789.6 407.5v-.7M746.7 535.5l-4.4 2.4M787.8 1115.2l.9-2.1M790.7 957l-6.8-9M789.7 407.5l-.2-.7M794.9 973.2v11.6M794.8 984.8v-11.6M786.2 406.3 745 372M795.5 968.4v16M796 1019.5v5M796.2 966.7V984M796.8 1009.4v14.7M796.9 966.3v17.3M797.3 1055v6M797.4 1007.7v16M797.5 965.9V983M797 1516.8l-10.8-25.2M798 1054.6v6.4M798.1 1006v17.3M798.2 965.5v17.2M798.6 1108.6v2.2M798.7 1054.2v6.6M798.8 1006.7v16.2M798.6 1143.5l.3 8.9M799 1142.7v9.6M799 1101.2v9.4M799 1054v6.8M799 1003.7v19M799.2 1142.4v10M799.2 1101v9.5M799.2 1054v6.8M799.3 1100.7v9.8M799.3 1053.9v6.8M799 1189l-.5 21.2M799.5 1095.8v14.6M799.6 1096.3v14M798.7 1191.8l-.2 8.8M799.7 1140.5l-.2 11.8M798.8 1191.7l-.3 17.4M799.8 1140.5l-.2 11.8M802.3 1291v3.4M802.3 1291v3.4M796.8 1210.4l1.7-4.5M806 1007l-4.3 14.2M811 959.2l-4.9 21.6M792.6 1211.2l3.7-8.5M791.2 1211.6l4.2-9.4M808.5 1050.5l-2.7 9.1M812.6 1188.2l-6 21M815.4 1138.5l-2.5 12.2M816.8 1049.2l-2.7 9M818.1 957.5l-4.9 21.6M822.5 1187l-6 21.2M812.2 1091.3l-4.8 16M824 1138l-2.4 11.7M825.2 955.8l-4.9 21.6M819.8 1092.7l-4 13.2M828.5 1090.2l-4.3 14.5M821.7 1001l-3.4 15M832.2 954.7l-5 21.8M833.9 426.4l2.2-2M832.4 1138.2 830 1150M835.5 431.2l2.2-5.6M834.5 428.3l3.2-2.7M828.8 999.7l-3.3 14.9M835.9 998.9l-3.4 15M831.8 1047.7l-2.1 9.4M838.7 1047.8l-2 9.4M832.7 1267.4l7.2-37M832.7 1267.4l7.1-37M839.8 1187l-4.1 20.6M863.7 1963.2l7.4-11M869 776.4l-2.1-1.2M859 1094.8l17.6 3.1M876.9 780.3l-7-4.2M899.4 1116l-3.3-13.5M899.1 1162l-1.8-11.8M907.5 1119.2l-2-8.2M884.7 784l-12-7M908 1221.4l-2.7-18.8M907.3 1164.9l-1.7-11.5M915.7 1169.2l-1.6-10.3M902.3 1068.6l-2-8.4M916.2 1125.1l-3-12.4M916.2 1225.3l-2.4-16.4M915.6 1273l-4.6-30.4M910.2 1071.5l-1.9-7.4M924.9 1131.2l-3.4-13.7M924.4 1229.7l-2.4-16.5M926.1 1230.6l1.8-29.5M905.8 1025l-3.6-14.4M918 1074.3l-1-4.1M913.4 1027.8l-2.8-11.3M921.6 1033.3l-3-12.4M929.9 1039l-1.7-6.7M932.9 998.7v-1.8"/></g></g></svg>